<svg xmlns="http://www.w3.org/2000/svg" width="24" height="24" viewBox="0 0 24 24">
  <g id="apple" transform="translate(-68 -337)">
    <rect id="Rectangle_2305" data-name="Rectangle 2305" width="24" height="24" transform="translate(68 337)" fill="none"/>
    <path id="Apple_logo_black_1_" data-name="Apple_logo_black (1)" d="M18.916,8.182a5.436,5.436,0,0,0-2.6,4.572,5.292,5.292,0,0,0,3.221,4.853,12.587,12.587,0,0,1-1.649,3.406c-1.027,1.479-2.1,2.955-3.732,2.955s-2.052-.948-3.936-.948c-1.836,0-2.489.979-3.982.979s-2.535-1.368-3.732-3.048A14.7,14.7,0,0,1,0,13C0,8.338,3.034,5.864,6.02,5.864c1.587,0,2.909,1.042,3.905,1.042.948,0,2.427-1.1,4.232-1.1A5.659,5.659,0,0,1,18.916,8.182ZM13.3,3.826A5.359,5.359,0,0,0,14.574.482,2.3,2.3,0,0,0,14.529,0,5.368,5.368,0,0,0,11,1.819,5.218,5.218,0,0,0,9.675,5.072a2.2,2.2,0,0,0,.046.434,1.878,1.878,0,0,0,.326.031A4.652,4.652,0,0,0,13.3,3.826Z" transform="translate(70 337)"/>
  </g>
</svg>
