<svg xmlns="http://www.w3.org/2000/svg" xmlns:xlink="http://www.w3.org/1999/xlink" width="308.879" height="212.896" viewBox="0 0 308.879 212.896">
  <defs>
    <clipPath id="clip-path">
      <rect id="Rectangle_16522" data-name="Rectangle 16522" width="308.879" height="212.896" fill="#b2b2b2"/>
    </clipPath>
  </defs>
  <g id="artwork_01" opacity="0.352">
    <g id="Group_16975" data-name="Group 16975" clip-path="url(#clip-path)">
      <path id="Path_145876" data-name="Path 145876" d="M40.277,33.172a.5.5,0,0,1-.311-.9q.782-.615,1.569-1.21a.5.5,0,1,1,.605.8q-.78.588-1.553,1.2a.5.5,0,0,1-.31.108m97.75-2.831a.5.5,0,0,1-.292-.094q-.8-.572-1.606-1.124a.5.5,0,1,1,.568-.829q.814.558,1.623,1.136a.5.5,0,0,1-.293.911m-93.8-.118a.5.5,0,0,1-.291-.913q.811-.575,1.628-1.129a.5.5,0,1,1,.564.832q-.808.548-1.611,1.117a.5.5,0,0,1-.29.092m89.723-2.644a.5.5,0,0,1-.27-.079q-.829-.529-1.664-1.037a.5.5,0,1,1,.523-.858q.844.513,1.682,1.048a.5.5,0,0,1-.271.926m-85.63-.1a.5.5,0,0,1-.269-.927q.84-.532,1.686-1.042a.5.5,0,0,1,.519.861q-.837.5-1.668,1.03a.5.5,0,0,1-.268.078m81.406-2.438a.5.5,0,0,1-.246-.065q-.856-.483-1.718-.944a.5.5,0,1,1,.474-.886q.871.465,1.737.954a.5.5,0,0,1-.247.94m-77.173-.083a.5.5,0,0,1-.246-.941q.869-.486,1.741-.948a.5.5,0,1,1,.471.888q-.863.458-1.721.937a.5.5,0,0,1-.245.064m72.816-2.216a.5.5,0,0,1-.221-.052q-.883-.433-1.769-.843a.5.5,0,0,1,.422-.913q.9.415,1.79.853a.5.5,0,0,1-.222.954m-68.45-.066a.5.5,0,0,1-.22-.954q.893-.435,1.792-.847a.5.5,0,1,1,.419.913q-.888.408-1.771.838a.5.5,0,0,1-.22.051M120.884,20.7a.5.5,0,0,1-.2-.039q-.9-.381-1.811-.736a.5.5,0,1,1,.367-.936q.918.36,1.834.745a.5.5,0,0,1-.2.966m-59.476-.054a.5.5,0,0,1-.194-.967q.92-.383,1.843-.742a.5.5,0,1,1,.364.937q-.912.355-1.821.733a.494.494,0,0,1-.193.039m54.882-1.715a.505.505,0,0,1-.166-.028q-.925-.325-1.854-.624a.5.5,0,0,1,.309-.957q.94.3,1.877.632a.5.5,0,0,1-.166.977m-50.274-.045a.5.5,0,0,1-.165-.978q.941-.326,1.885-.629a.5.5,0,0,1,.306.958q-.932.3-1.861.621a.509.509,0,0,1-.165.028M111.6,17.45a.516.516,0,0,1-.137-.019q-.943-.266-1.889-.507a.5.5,0,1,1,.248-.974q.958.244,1.914.513a.5.5,0,0,1-.136.987m-40.873-.036a.5.5,0,0,1-.135-.987q.959-.268,1.92-.51a.5.5,0,1,1,.246.975q-.949.24-1.9.5a.51.51,0,0,1-.136.019m36.094-1.148a.5.5,0,0,1-.105-.011q-.959-.205-1.918-.384a.5.5,0,0,1,.185-.988q.973.182,1.943.39a.5.5,0,0,1-.1.994M75.51,16.239a.5.5,0,0,1-.1-.994q.973-.206,1.948-.387a.5.5,0,0,1,.183.989q-.962.179-1.923.381a.492.492,0,0,1-.1.011m26.46-.847a.455.455,0,0,1-.073-.006q-.97-.142-1.94-.259a.5.5,0,1,1,.12-1q.984.118,1.966.262a.5.5,0,0,1-.072,1m-21.607-.018a.5.5,0,0,1-.071-1q.984-.142,1.969-.259a.5.5,0,0,1,.118,1q-.972.115-1.943.256a.514.514,0,0,1-.073.006m16.714-.538-.041,0q-.977-.078-1.953-.131a.5.5,0,0,1-.475-.529.511.511,0,0,1,.529-.475q.99.053,1.98.133a.5.5,0,0,1-.04,1m-11.816-.01a.5.5,0,0,1-.039-1q.99-.078,1.98-.129a.5.5,0,1,1,.052,1q-.977.051-1.954.128l-.04,0m6.894-.222h-.008q-.977-.014-1.957,0a.51.51,0,0,1-.509-.5.5.5,0,0,1,.5-.509c.662-.008,1.322-.008,1.984,0a.5.5,0,0,1-.007,1.005" transform="translate(-19.783 -6.76)" fill="#b2b2b2"/>
      <path id="Path_145877" data-name="Path 145877" d="M240.308,50.047a.5.5,0,0,1-.309-.106q-.4-.308-.792-.611a.5.5,0,1,1,.61-.8q.4.306.8.617a.5.5,0,0,1-.309.9" transform="translate(-118.881 -24.087)" fill="#b2b2b2"/>
      <path id="Path_145878" data-name="Path 145878" d="M35.447,54.905A1.005,1.005,0,1,1,34.442,53.9a1,1,0,0,1,1.005,1.005" transform="translate(-16.631 -26.809)" fill="#b2b2b2"/>
      <path id="Subtraction_12" data-name="Subtraction 12" d="M-1245.492,1225.747h0a22.424,22.424,0,0,1-5.71-7.725,7.416,7.416,0,0,1-.626-3.027,6.344,6.344,0,0,1,6.337-6.337,6.344,6.344,0,0,1,6.337,6.337,7.429,7.429,0,0,1-.626,3.027,22.424,22.424,0,0,1-5.71,7.725Zm0-14.25a3.146,3.146,0,0,0-3.142,3.142,3.145,3.145,0,0,0,3.142,3.142,3.146,3.146,0,0,0,3.142-3.142A3.146,3.146,0,0,0-1245.492,1211.5Z" transform="translate(1263.303 -1200.164)" fill="#b2b2b2" stroke="rgba(0,0,0,0)" stroke-width="1"/>
      <path id="Path_145881" data-name="Path 145881" d="M245.055,73.045l6.572-4.338,1.232,2.64-5.644,2.634a1.649,1.649,0,0,1-1.932-.4l-.265-.309a.15.15,0,0,1,.036-.228" transform="translate(-121.851 -34.174)" fill="#b2b2b2"/>
      <path id="Path_145882" data-name="Path 145882" d="M264.455,53.853l-4.417,6.519,2.626,1.265,2.7-5.612a1.649,1.649,0,0,0-.376-1.936l-.306-.268a.149.149,0,0,0-.228.033" transform="translate(-129.34 -26.75)" fill="#b2b2b2"/>
      <path id="Path_145883" data-name="Path 145883" d="M250.116,50.564l-2.14,2.975,1.462,1.479,1.136-3.233A.987.987,0,0,0,250.4,50.7l-.158-.149a.084.084,0,0,0-.128.014" transform="translate(-123.34 -25.131)" fill="#b2b2b2"/>
      <path id="Path_145884" data-name="Path 145884" d="M241.968,58.623l3-2.1L246.43,58l-3.247,1.1a.988.988,0,0,1-1.083-.185l-.147-.16a.084.084,0,0,1,.016-.128" transform="translate(-120.333 -28.112)" fill="#b2b2b2"/>
      <path id="Path_145885" data-name="Path 145885" d="M258.48,68.757a1.459,1.459,0,0,0,1,.392.983.983,0,0,0,.7-.276,1.026,1.026,0,0,0,.275-.8,1.472,1.472,0,0,0-.377-.9l-5.984-6.906-4.041-3.547a23.035,23.035,0,0,0-4.782-3.235h0a.225.225,0,0,0-.3.3,23.028,23.028,0,0,0,3.178,4.823l3.5,4.083Z" transform="translate(-121.831 -26.587)" fill="#b2b2b2"/>
      <path id="Path_145886" data-name="Path 145886" d="M449.232,42.029a.5.5,0,0,1-.442-.263q-.476-.876-.964-1.735a.5.5,0,0,1,.874-.5q.494.868.974,1.753a.5.5,0,0,1-.441.742m-2.49-4.32a.5.5,0,0,1-.429-.24q-.519-.85-1.055-1.68a.5.5,0,1,1,.845-.544q.541.84,1.067,1.7a.5.5,0,0,1-.428.765m-2.723-4.177a.5.5,0,0,1-.413-.216q-.568-.817-1.151-1.614a.5.5,0,1,1,.812-.593q.59.807,1.164,1.635a.5.5,0,0,1-.412.789M354.583,33.5a.5.5,0,0,1-.053-1,4.808,4.808,0,0,0,1.6-.457l.113-.058a.5.5,0,1,1,.47.889c-.046.025-.094.049-.141.072a5.81,5.81,0,0,1-1.939.554.491.491,0,0,1-.054,0m-2.935-.41a.514.514,0,0,1-.182-.034A7.125,7.125,0,0,1,349.61,32a.5.5,0,0,1,.625-.788,6.091,6.091,0,0,0,1.594.911.5.5,0,0,1-.181.972m6.92-2.245a.5.5,0,0,1-.439-.747,6.162,6.162,0,0,0,.633-1.724.5.5,0,0,1,.984.208,7.181,7.181,0,0,1-.738,2.005.5.5,0,0,1-.44.258m-10.432-1.1a.5.5,0,0,1-.466-.317q-.065-.162-.12-.329a10.723,10.723,0,0,1-.411-1.709.5.5,0,1,1,.993-.152,9.763,9.763,0,0,0,.373,1.547c.03.091.063.181.1.271a.5.5,0,0,1-.467.689m92.914-.224a.5.5,0,0,1-.395-.191q-.616-.78-1.25-1.537a.5.5,0,0,1,.771-.645q.642.768,1.267,1.559a.5.5,0,0,1-.394.814m-81.757-3.516a.5.5,0,0,1-.494-.414,6.794,6.794,0,0,0-.5-1.621l-.066-.142a.5.5,0,0,1,.9-.439l.076.162a7.828,7.828,0,0,1,.576,1.862.5.5,0,0,1-.407.584.532.532,0,0,1-.089.008m78.534-.287a.5.5,0,0,1-.372-.164q-.669-.737-1.355-1.448a.5.5,0,0,1,.724-.7q.7.722,1.375,1.47a.5.5,0,0,1-.372.84m-90.13-.876a.5.5,0,0,1-.1-.01.5.5,0,0,1-.392-.593,8.455,8.455,0,0,1,.681-2,.5.5,0,1,1,.9.439,7.458,7.458,0,0,0-.6,1.764.5.5,0,0,1-.492.4m86.642-2.691a.5.5,0,0,1-.346-.138q-.721-.683-1.458-1.341a.5.5,0,1,1,.669-.75q.749.668,1.482,1.362a.5.5,0,0,1-.346.868m-77.332-.5a.5.5,0,0,1-.372-.165,13.179,13.179,0,0,0-1.4-1.318.5.5,0,1,1,.638-.777,14.283,14.283,0,0,1,1.5,1.419.5.5,0,0,1-.372.841M308.575,20.57a.5.5,0,0,1-.282-.918c.554-.376,1.126-.744,1.7-1.092a.5.5,0,0,1,.522.859c-.559.34-1.116.7-1.657,1.065a.5.5,0,0,1-.282.086m41.5-.031a.5.5,0,0,1-.361-.852c.44-.455.932-.928,1.461-1.407a.5.5,0,0,1,.674.745c-.513.464-.989.923-1.414,1.362a.5.5,0,0,1-.361.153m80.516-1.673a.5.5,0,0,1-.315-.112q-.771-.623-1.56-1.217a.5.5,0,1,1,.6-.8q.8.6,1.587,1.237a.5.5,0,0,1-.316.894M353.1,18.582a.5.5,0,0,1-.255-.07c-.5-.3-1.029-.586-1.613-.883l-.11-.055a.5.5,0,1,1,.454-.9l.111.056c.6.307,1.149.606,1.669.914a.5.5,0,0,1-.256.935m-40.234-.548a.5.5,0,0,1-.229-.95c.6-.3,1.207-.6,1.819-.876a.5.5,0,0,1,.414.916c-.6.27-1.194.558-1.775.855a.5.5,0,0,1-.229.055m40.941-.8a.5.5,0,0,1-.309-.9c.539-.418,1.087-.821,1.628-1.2a.5.5,0,1,1,.574.825c-.528.367-1.062.76-1.587,1.168a.5.5,0,0,1-.307.106m-5.179-.848a.5.5,0,0,1-.191-.038c-.605-.249-1.224-.485-1.84-.7a.5.5,0,1,1,.335-.948c.631.223,1.266.465,1.887.72a.5.5,0,0,1-.191.968m-31.2-.354a.5.5,0,0,1-.175-.974c.627-.232,1.269-.453,1.909-.657a.5.5,0,1,1,.305.958c-.625.2-1.253.415-1.865.642a.507.507,0,0,1-.174.031M426.579,15.9a.5.5,0,0,1-.281-.086c-.545-.368-1.1-.73-1.658-1.077a.5.5,0,0,1,.533-.852c.564.353,1.132.722,1.687,1.1a.5.5,0,0,1-.281.919m-82.672-1.116a.526.526,0,0,1-.133-.018c-.629-.171-1.273-.33-1.912-.471a.5.5,0,1,1,.216-.982c.656.145,1.316.307,1.961.483a.5.5,0,0,1-.132.988M322.2,14.574a.5.5,0,0,1-.119-.991c.652-.159,1.315-.306,1.97-.435a.5.5,0,1,1,.194.986c-.64.127-1.288.269-1.926.425a.515.515,0,0,1-.12.014m35.752-.116a.5.5,0,0,1-.245-.942c.523-.291,1.03-.546,1.5-.758l.326-.144a.5.5,0,0,1,.406.92l-.323.143c-.447.2-.927.442-1.425.719a.5.5,0,0,1-.244.063m-18.918-.69a.52.52,0,0,1-.073-.006c-.648-.095-1.307-.176-1.957-.241a.5.5,0,0,1,.1-1c.666.066,1.339.149,2,.247a.5.5,0,0,1-.073,1m-11.933-.1a.5.5,0,0,1-.063-1c.663-.085,1.338-.156,2.006-.211a.5.5,0,1,1,.082,1c-.653.054-1.313.123-1.961.206a.467.467,0,0,1-.064,0m6.968-.337h-.016q-.985-.03-1.972-.016a.5.5,0,0,1-.015-1.005q1.01-.014,2.018.017a.5.5,0,0,1-.016,1.005m88.265-.031a.5.5,0,0,1-.243-.063c-.573-.317-1.161-.627-1.746-.923a.5.5,0,0,1,.454-.9c.6.3,1.195.618,1.778.94a.5.5,0,0,1-.243.943m-59.838-.886a.5.5,0,0,1-.188-.969q.932-.375,1.869-.729a.5.5,0,0,1,.355.94q-.927.35-1.848.721a.505.505,0,0,1-.188.036m55.37-1.321a.5.5,0,0,1-.2-.042c-.6-.262-1.211-.517-1.822-.758a.5.5,0,0,1,.369-.935c.622.245,1.246.505,1.856.773a.5.5,0,0,1-.2.963m-50.7-.413A.5.5,0,0,1,367,9.7q.951-.323,1.906-.624a.5.5,0,0,1,.3.959q-.944.3-1.885.617a.506.506,0,0,1-.161.027m46.045-1.372a.5.5,0,0,1-.158-.026c-.618-.205-1.253-.4-1.887-.589a.5.5,0,1,1,.283-.965c.645.189,1.291.391,1.92.6a.5.5,0,0,1-.158.98m-41.283-.1a.5.5,0,0,1-.134-.987q.969-.269,1.939-.514a.5.5,0,1,1,.246.975q-.96.242-1.916.508a.5.5,0,0,1-.135.018m4.84-1.193a.5.5,0,0,1-.106-.994q.984-.212,1.967-.4a.5.5,0,0,1,.188.988q-.972.185-1.943.395a.515.515,0,0,1-.107.011m31.649-.071a.52.52,0,0,1-.117-.014q-.96-.229-1.931-.426a.5.5,0,0,1,.2-.985q.987.2,1.963.434a.5.5,0,0,1-.116.991m-26.746-.832a.5.5,0,0,1-.075-1q1-.152,1.987-.279a.5.5,0,0,1,.128,1q-.981.125-1.963.275a.494.494,0,0,1-.076.006m21.853-.124a.505.505,0,0,1-.077-.006q-.976-.151-1.959-.271a.5.5,0,0,1,.122-1q1,.122,1.991.275a.5.5,0,0,1-.076,1m-16.9-.475a.5.5,0,0,1-.044-1q1-.09,2-.152a.5.5,0,1,1,.063,1q-.985.062-1.975.15l-.045,0m11.953-.094-.039,0q-.985-.075-1.976-.123a.5.5,0,0,1-.478-.526.516.516,0,0,1,.526-.478q1.006.048,2,.125a.5.5,0,0,1-.038,1M391.6,6.234a.5.5,0,0,1-.011-1.005q.823-.019,1.643-.019h.364a.5.5,0,0,1,0,1.005h-.361q-.809,0-1.621.019H391.6" transform="translate(-153.232 -2.591)" fill="#b2b2b2"/>
      <path id="Path_145887" data-name="Path 145887" d="M303.433,38.005A1.005,1.005,0,1,1,302.428,37a1,1,0,0,1,1.005,1.005" transform="translate(-149.924 -18.403)" fill="#b2b2b2"/>
      <path id="Subtraction_11" data-name="Subtraction 11" d="M-1245.492,1225.747h0a22.424,22.424,0,0,1-5.71-7.725,7.416,7.416,0,0,1-.626-3.027,6.344,6.344,0,0,1,6.337-6.337,6.344,6.344,0,0,1,6.337,6.337,7.429,7.429,0,0,1-.626,3.027,22.424,22.424,0,0,1-5.71,7.725Zm0-14.25a3.145,3.145,0,0,0-3.141,3.142,3.145,3.145,0,0,0,3.141,3.142,3.146,3.146,0,0,0,3.142-3.142A3.146,3.146,0,0,0-1245.492,1211.5Z" transform="translate(1397.996 -1208.658)" fill="#b2b2b2" stroke="rgba(0,0,0,0)" stroke-width="1"/>
      <path id="Path_145890" data-name="Path 145890" d="M582.769,102.276l7.685-1.717.213,2.906-6.212.455a1.649,1.649,0,0,1-1.663-1.061l-.138-.383a.15.15,0,0,1,.115-.2" transform="translate(-289.801 -50.017)" fill="#b2b2b2"/>
      <path id="Path_145891" data-name="Path 145891" d="M606.988,90.488l-6.446,4.522,2,2.115,4.521-4.284A1.649,1.649,0,0,0,607.4,90.9l-.19-.359a.15.15,0,0,0-.226-.051" transform="translate(-298.703 -44.992)" fill="#b2b2b2"/>
      <path id="Path_145892" data-name="Path 145892" d="M596.013,81.5l-3.057,2.019.84,1.9,2.212-2.618a.987.987,0,0,0,.225-1.076l-.095-.2a.084.084,0,0,0-.125-.033" transform="translate(-294.929 -40.528)" fill="#b2b2b2"/>
      <path id="Path_145893" data-name="Path 145893" d="M585.822,86.431l3.552-.9.84,1.9-3.425-.129a.988.988,0,0,1-.946-.558l-.08-.2a.084.084,0,0,1,.06-.114" transform="translate(-291.348 -42.543)" fill="#b2b2b2"/>
      <path id="Path_145894" data-name="Path 145894" d="M598.328,100.77a1.463,1.463,0,0,0,.8.723.986.986,0,0,0,.747-.011,1.028,1.028,0,0,0,.544-.654,1.472,1.472,0,0,0-.032-.977l-3.137-8.582-2.516-4.753a23.017,23.017,0,0,0-3.319-4.724h0a.225.225,0,0,0-.39.172,23.021,23.021,0,0,0,1.255,5.638l1.816,5.059Z" transform="translate(-293.967 -40.645)" fill="#b2b2b2"/>
      <path id="Path_145895" data-name="Path 145895" d="M142.692,134.6h-.031c-.693-.043-1.388-.119-2.067-.226a.5.5,0,0,1,.158-.993c.647.1,1.31.175,1.97.216a.5.5,0,0,1-.03,1m3.044-.024a.5.5,0,0,1-.039-1,17.875,17.875,0,0,0,1.959-.261.5.5,0,1,1,.189.987,18.973,18.973,0,0,1-2.069.276l-.04,0m-8.027-.9a.5.5,0,0,1-.151-.024c-.653-.206-1.309-.448-1.95-.72a.5.5,0,0,1,.393-.925c.611.26,1.236.491,1.859.687a.5.5,0,0,1-.151.982m12.96-.235a.5.5,0,0,1-.193-.967,12.073,12.073,0,0,0,1.735-.887.5.5,0,0,1,.53.854,13.081,13.081,0,0,1-1.88.962.5.5,0,0,1-.192.039m-17.578-1.852a.5.5,0,0,1-.257-.071c-.582-.347-1.165-.729-1.734-1.135a.5.5,0,0,1,.585-.818c.546.39,1.106.757,1.665,1.091a.5.5,0,0,1-.258.934m21.739-1a.5.5,0,0,1-.363-.85,14.878,14.878,0,0,0,1.26-1.507.5.5,0,1,1,.812.593,15.733,15.733,0,0,1-1.345,1.609.5.5,0,0,1-.363.155m-25.814-2.024a.5.5,0,0,1-.335-.128c-.5-.448-1-.927-1.494-1.424a.5.5,0,0,1,.716-.706c.474.482.962.946,1.448,1.381a.5.5,0,0,1-.335.877m28.668-2.153a.5.5,0,0,1-.454-.717,15.261,15.261,0,0,0,.721-1.829.5.5,0,1,1,.957.307,16.1,16.1,0,0,1-.768,1.95.5.5,0,0,1-.455.289M125.5,124.909a.5.5,0,0,1-.386-.18l-.154-.185c-.376-.455-.753-.938-1.12-1.435a.5.5,0,1,1,.808-.6c.356.483.722.951,1.087,1.392l.15.181a.5.5,0,0,1-.386.824m-2.968-4.117a.5.5,0,0,1-.426-.235c-.35-.558-.705-1.149-1.055-1.759a.5.5,0,0,1,.872-.5c.344.6.692,1.178,1.035,1.725a.5.5,0,0,1-.425.77m-86.017-1.113a.559.559,0,0,1-.07,0,.5.5,0,0,1-.429-.567c.094-.676.2-1.358.325-2.026a.5.5,0,1,1,.989.18c-.119.654-.226,1.322-.318,1.985a.5.5,0,0,1-.5.433m83.513-3.3a.5.5,0,0,1-.446-.27q-.47-.9-.925-1.82a.5.5,0,1,1,.9-.448q.452.908.916,1.8a.5.5,0,0,1-.445.735M37.478,114.7a.518.518,0,0,1-.123-.015.5.5,0,0,1-.365-.61c.167-.664.35-1.331.544-1.98a.5.5,0,0,1,.963.288c-.19.634-.369,1.286-.532,1.937a.5.5,0,0,1-.487.38m80.29-2.873a.5.5,0,0,1-.453-.284l-.884-1.83a.5.5,0,0,1,.9-.439l.885,1.831a.5.5,0,0,1-.452.721m-78.781-1.972a.509.509,0,0,1-.177-.032.5.5,0,0,1-.294-.648c.242-.641.5-1.282.769-1.9a.5.5,0,1,1,.923.4c-.262.609-.515,1.234-.751,1.861a.5.5,0,0,1-.47.326m76.548-2.593a.5.5,0,0,1-.449-.276q-.457-.9-.929-1.8a.5.5,0,1,1,.888-.471q.477.9.938,1.814a.5.5,0,0,1-.448.729m-74.483-2.042a.5.5,0,0,1-.445-.734c.314-.6.647-1.21.991-1.8a.5.5,0,1,1,.869.506c-.336.576-.661,1.168-.968,1.758a.5.5,0,0,1-.446.271m72.06-2.424a.5.5,0,0,1-.433-.247q-.394-.665-.806-1.315c-.084-.133-.168-.264-.253-.395a.5.5,0,0,1,.842-.548q.13.2.26.4.421.663.822,1.342a.5.5,0,0,1-.432.759m-69.452-1.93a.5.5,0,0,1-.414-.786c.384-.563.789-1.124,1.2-1.668a.5.5,0,1,1,.8.607c-.4.531-.8,1.079-1.173,1.628a.5.5,0,0,1-.415.219m66.631-2.292a.5.5,0,0,1-.4-.2c-.4-.533-.823-1.063-1.249-1.573a.5.5,0,0,1,.773-.643c.435.522.866,1.064,1.278,1.61a.5.5,0,0,1-.4.806M46.775,96.853a.5.5,0,0,1-.378-.834c.449-.512.917-1.021,1.392-1.512a.5.5,0,1,1,.724.7c-.463.48-.921.978-1.36,1.478a.5.5,0,0,1-.378.171m60.218-2.146a.5.5,0,0,1-.362-.154c-.464-.483-.945-.959-1.427-1.414a.5.5,0,1,1,.69-.731c.494.467.986.954,1.462,1.449a.5.5,0,0,1-.362.851M50.342,93.24a.5.5,0,0,1-.337-.876c.505-.455,1.029-.907,1.558-1.34a.5.5,0,0,1,.638.777c-.517.424-1.029.865-1.523,1.311a.5.5,0,0,1-.336.129m52.915-1.976a.5.5,0,0,1-.318-.114c-.518-.423-1.052-.837-1.587-1.233a.5.5,0,1,1,.6-.808c.547.405,1.094.83,1.624,1.263a.5.5,0,0,1-.318.892M54.3,90.061a.5.5,0,0,1-.293-.912c.549-.393,1.121-.782,1.7-1.157a.5.5,0,1,1,.547.843c-.565.366-1.124.747-1.661,1.131a.5.5,0,0,1-.292.094m44.834-1.768a.5.5,0,0,1-.268-.077c-.565-.358-1.145-.705-1.723-1.033a.5.5,0,1,1,.5-.875c.593.336,1.186.692,1.765,1.057a.5.5,0,0,1-.269.927m-40.543-.949a.5.5,0,0,1-.245-.941c.6-.332,1.206-.656,1.816-.962a.5.5,0,0,1,.45.9c-.6.3-1.195.615-1.777.94a.494.494,0,0,1-.244.064m36.093-1.5a.5.5,0,0,1-.214-.048c-.6-.285-1.222-.559-1.837-.814a.5.5,0,1,1,.384-.928c.631.261,1.264.541,1.882.834a.5.5,0,0,1-.215.956M63.16,85.119a.5.5,0,0,1-.195-.966c.633-.265,1.277-.519,1.914-.752a.5.5,0,0,1,.346.944c-.623.228-1.253.475-1.871.735a.5.5,0,0,1-.194.039m26.809-1.157a.5.5,0,0,1-.157-.025c-.635-.208-1.281-.4-1.922-.577a.5.5,0,1,1,.264-.97c.657.179,1.321.378,1.971.592a.5.5,0,0,1-.156.981m-22.018-.531a.5.5,0,0,1-.138-.986c.664-.19,1.335-.364,1.993-.516a.5.5,0,0,1,.227.98c-.641.148-1.3.318-1.944.5a.507.507,0,0,1-.138.02m17.1-.741a.551.551,0,0,1-.094-.009c-.657-.126-1.323-.235-1.98-.325a.5.5,0,1,1,.136-1c.674.092,1.358.2,2.032.333a.5.5,0,0,1-.094,1m-12.137-.332a.5.5,0,0,1-.07-1q.574-.083,1.137-.143.455-.049.913-.086a.5.5,0,0,1,.082,1q-.445.036-.889.084-.544.058-1.1.138a.5.5,0,0,1-.072.005m7.1-.289h-.029c-.668-.038-1.343-.057-2-.058a.5.5,0,0,1-.5-.5.492.492,0,0,1,.5-.5c.679,0,1.372.021,2.059.059a.5.5,0,0,1-.028,1" transform="translate(-17.911 -40.29)" fill="#b2b2b2"/>
      <path id="Path_145896" data-name="Path 145896" d="M280.954,158.672a1.005,1.005,0,1,1-1.005-1.005,1,1,0,0,1,1.005,1.005" transform="translate(-138.744 -78.422)" fill="#b2b2b2"/>
      <path id="Subtraction_9" data-name="Subtraction 9" d="M-1245.492,1225.747h0a22.424,22.424,0,0,1-5.71-7.725,7.416,7.416,0,0,1-.626-3.027,6.344,6.344,0,0,1,6.337-6.337,6.344,6.344,0,0,1,6.337,6.337,7.429,7.429,0,0,1-.626,3.027,22.424,22.424,0,0,1-5.71,7.725Zm0-14.249a3.145,3.145,0,0,0-3.142,3.142,3.146,3.146,0,0,0,3.142,3.142,3.145,3.145,0,0,0,3.141-3.142A3.145,3.145,0,0,0-1245.492,1211.5Z" transform="translate(1386.698 -1148.01)" fill="#b2b2b2" stroke="rgba(0,0,0,0)" stroke-width="1"/>
      <path id="Path_145899" data-name="Path 145899" d="M18.874,177.352l7.66,1.826-1.083,2.705-5.783-2.314a1.649,1.649,0,0,1-1.03-1.683l.044-.4a.15.15,0,0,1,.191-.13" transform="translate(-9.267 -88.21)" fill="#b2b2b2"/>
      <path id="Path_145900" data-name="Path 145900" d="M44.707,178.623l-7.776,1.238.874,2.78,5.942-1.868a1.65,1.65,0,0,0,1.155-1.6l-.014-.407a.15.15,0,0,0-.18-.144" transform="translate(-18.369 -88.843)" fill="#b2b2b2"/>
      <path id="Path_145901" data-name="Path 145901" d="M39.8,164.249l-3.633.474-.079,2.078,3.136-1.383a.988.988,0,0,0,.674-.868v-.218a.083.083,0,0,0-.1-.084" transform="translate(-17.95 -81.695)" fill="#b2b2b2"/>
      <path id="Path_145902" data-name="Path 145902" d="M28.99,163.7l3.587.75-.079,2.078-3.022-1.618a.988.988,0,0,1-.606-.917l.017-.217a.083.083,0,0,1,.1-.076" transform="translate(-14.359 -81.422)" fill="#b2b2b2"/>
      <path id="Path_145903" data-name="Path 145903" d="M32.378,181.32a1.459,1.459,0,0,0,.4,1,.982.982,0,0,0,.677.318,1.027,1.027,0,0,0,.776-.35,1.47,1.47,0,0,0,.4-.892l.944-9.089-.177-5.374a23.023,23.023,0,0,0-.912-5.7h0a.225.225,0,0,0-.427-.016,23.059,23.059,0,0,0-1.344,5.618l-.586,5.344Z" transform="translate(-15.98 -80.114)" fill="#b2b2b2"/>
      <path id="Path_145904" data-name="Path 145904" d="M71.43,198.759a.5.5,0,0,1-.5-.433c-.1-.678-.168-1.36-.218-2.027a.5.5,0,1,1,1-.073c.047.645.118,1.3.211,1.96a.5.5,0,0,1-.428.568.481.481,0,0,1-.071.005m-.268-5h-.019a.5.5,0,0,1-.484-.522c.026-.683.078-1.368.156-2.036a.5.5,0,1,1,1,.116c-.075.642-.125,1.3-.15,1.958a.5.5,0,0,1-.5.484m.682-4.955a.518.518,0,0,1-.12-.014.5.5,0,0,1-.369-.608c.162-.663.352-1.324.567-1.965a.5.5,0,1,1,.953.319c-.206.615-.388,1.249-.543,1.885a.5.5,0,0,1-.488.384m1.684-4.71a.5.5,0,0,1-.453-.72c.293-.61.615-1.217.958-1.806a.5.5,0,1,1,.868.506c-.33.566-.639,1.149-.92,1.735a.5.5,0,0,1-.453.285m2.6-4.274a.5.5,0,0,1-.4-.8c.4-.538.837-1.071,1.286-1.586a.5.5,0,1,1,.757.661c-.433.5-.85,1.011-1.239,1.529a.5.5,0,0,1-.4.2m95.768-3.046h-.235a.5.5,0,0,1,0-1.005h.233q.883,0,1.765-.014a.511.511,0,0,1,.511.5.5.5,0,0,1-.5.51q-.89.014-1.78.014m-3.241-.045h-.015q-1.007-.028-2.013-.073a.5.5,0,0,1-.479-.525.514.514,0,0,1,.525-.479q1,.045,2,.073a.5.5,0,0,1-.014,1.005m8.02-.054a.5.5,0,0,1-.021-1q1-.041,1.994-.1a.5.5,0,1,1,.059,1q-1,.058-2.012.1h-.021m-13.028-.195-.036,0q-1-.072-2.008-.16a.5.5,0,1,1,.088-1q1,.087,1.991.159a.5.5,0,0,1-.035,1m18.031-.121a.5.5,0,0,1-.042-1q.994-.084,1.988-.186a.5.5,0,0,1,.1,1q-1,.1-2.005.188l-.043,0m-102.193-.256a.5.5,0,0,1-.342-.871c.492-.458,1.01-.909,1.537-1.339a.5.5,0,1,1,.635.779c-.511.417-1.012.853-1.488,1.3a.5.5,0,0,1-.343.135m79.17-.088-.058,0q-1-.115-2-.247a.5.5,0,0,1,.132-1q.99.131,1.982.245a.5.5,0,0,1-.057,1m28.009-.189a.5.5,0,0,1-.064-1q.988-.13,1.975-.28a.5.5,0,0,1,.151.994q-1,.152-2,.283a.578.578,0,0,1-.066,0m-32.977-.491a.532.532,0,0,1-.079-.006q-.994-.158-1.986-.333a.5.5,0,1,1,.174-.99q.984.173,1.97.33a.5.5,0,0,1-.078,1m37.929-.3a.5.5,0,0,1-.092-1q.979-.185,1.953-.395a.5.5,0,1,1,.212.983q-.986.213-1.979.4a.5.5,0,0,1-.094.009m-42.864-.589a.463.463,0,0,1-.1-.01q-.987-.194-1.971-.4a.5.5,0,0,1,.206-.984q.979.2,1.96.4a.5.5,0,0,1-.1,1m47.757-.5a.5.5,0,0,1-.126-.989q.964-.251,1.918-.531a.5.5,0,1,1,.283.965q-.969.284-1.948.539a.5.5,0,0,1-.127.017m-52.662-.534a.512.512,0,0,1-.11-.012q-.98-.219-1.959-.444a.5.5,0,0,1,.225-.98q.976.224,1.953.442a.5.5,0,0,1-.109.993M83.42,173a.5.5,0,0,1-.28-.92c.561-.376,1.141-.74,1.725-1.082a.5.5,0,1,1,.508.867c-.566.332-1.129.685-1.673,1.05a.5.5,0,0,1-.279.085m117.89-.5a.5.5,0,0,1-.166-.977c.628-.219,1.255-.451,1.864-.69a.5.5,0,1,1,.366.936c-.62.243-1.259.479-1.9.7a.5.5,0,0,1-.166.028m-62.346-.2a.507.507,0,0,1-.116-.014l-1.953-.461a.5.5,0,0,1,.231-.978l1.952.461a.5.5,0,0,1-.115.992m-4.88-1.154a.5.5,0,0,1-.115-.014q-.976-.229-1.952-.455a.5.5,0,0,1,.226-.98q.978.226,1.955.456a.5.5,0,0,1-.115.992m71.874-.516a.5.5,0,0,1-.211-.959c.6-.276,1.2-.569,1.782-.87a.5.5,0,1,1,.46.894c-.6.307-1.209.606-1.822.889a.5.5,0,0,1-.21.046m-118.176-.09a.5.5,0,0,1-.214-.958c.618-.29,1.248-.561,1.873-.806a.5.5,0,0,1,.367.936c-.605.237-1.215.5-1.813.781a.5.5,0,0,1-.214.048m41.414-.515a.5.5,0,0,1-.109-.012q-.977-.216-1.956-.425a.5.5,0,0,1,.209-.983q.983.208,1.964.426a.5.5,0,0,1-.108.993m-4.908-1.026a.487.487,0,0,1-.1-.01q-.5-.1-1-.191-.482-.09-.967-.177a.5.5,0,1,1,.178-.99q.488.088.974.179.5.095,1,.192a.5.5,0,0,1-.1,1m-31.807-.2a.5.5,0,0,1-.132-.987c.643-.175,1.3-.339,1.968-.489a.5.5,0,0,1,.221.981c-.648.146-1.3.307-1.925.477a.5.5,0,0,1-.132.018m117.9-.514a.5.5,0,0,1-.261-.932c.564-.342,1.126-.7,1.67-1.067a.5.5,0,0,1,.561.834c-.556.375-1.132.743-1.71,1.093a.5.5,0,0,1-.26.072m-91.035-.153a.587.587,0,0,1-.078-.006q-.985-.153-1.975-.287a.5.5,0,0,1,.135-1q1,.136,1.994.29a.5.5,0,0,1-.076,1m-21.97-.384a.5.5,0,0,1-.079-1c.657-.106,1.331-.2,2.005-.282a.5.5,0,0,1,.121,1c-.661.08-1.323.173-1.967.277a.486.486,0,0,1-.08.007m17-.263-.052,0q-.992-.1-1.986-.183a.5.5,0,0,1-.46-.541.5.5,0,0,1,.541-.46q1,.081,2.009.185a.5.5,0,0,1-.051,1m-12.017-.3a.5.5,0,0,1-.033-1q1.008-.067,2.019-.1a.5.5,0,0,1,.034,1q-1,.032-1.987.1h-.034m7.017-.071h-.021q-1-.041-1.991-.055a.5.5,0,0,1,.014-1.005q1.008.014,2.018.056a.5.5,0,0,1-.021,1M214.5,165.42a.5.5,0,0,1-.314-.9c.513-.409,1.021-.838,1.509-1.277a.5.5,0,0,1,.671.748c-.5.451-1.026.894-1.554,1.314a.5.5,0,0,1-.313.11m3.678-3.4a.5.5,0,0,1-.367-.846c.448-.479.888-.979,1.306-1.483a.5.5,0,0,1,.774.642c-.431.52-.884,1.033-1.345,1.527a.5.5,0,0,1-.367.16m3.141-3.9a.5.5,0,0,1-.413-.788c.372-.54.733-1.1,1.07-1.66a.5.5,0,1,1,.861.519c-.348.578-.719,1.153-1.1,1.711a.5.5,0,0,1-.414.218m2.515-4.332a.5.5,0,0,1-.453-.72c.286-.6.552-1.2.792-1.8a.5.5,0,1,1,.933.372c-.248.622-.523,1.25-.818,1.867a.5.5,0,0,1-.454.285m1.771-4.683a.5.5,0,0,1-.484-.638c.178-.637.332-1.281.459-1.913a.5.5,0,0,1,.986.2c-.132.656-.292,1.324-.476,1.986a.5.5,0,0,1-.484.368m.883-4.927-.04,0a.5.5,0,0,1-.462-.54c.048-.605.072-1.218.072-1.823v-.136a.5.5,0,0,1,.5-.508h.006a.5.5,0,0,1,.5.5v.146c0,.631-.025,1.271-.075,1.9a.5.5,0,0,1-.5.463m-.142-5a.5.5,0,0,1-.5-.434q-.034-.25-.075-.5c-.077-.475-.174-.952-.288-1.419a.5.5,0,1,1,.977-.24c.121.493.223,1,.3,1.5q.041.261.078.522a.5.5,0,0,1-.429.567.533.533,0,0,1-.069,0m-1.326-4.818a.5.5,0,0,1-.462-.305,18.223,18.223,0,0,0-.863-1.747.5.5,0,1,1,.876-.493,19.081,19.081,0,0,1,.911,1.844.5.5,0,0,1-.264.66.509.509,0,0,1-.2.041m-2.561-4.291a.5.5,0,0,1-.4-.191c-.4-.506-.831-1-1.285-1.472a.5.5,0,1,1,.723-.7c.477.495.932,1.015,1.352,1.548a.5.5,0,0,1-.395.814m-3.556-3.518a.5.5,0,0,1-.308-.106c-.51-.4-1.048-.777-1.6-1.131a.5.5,0,0,1,.543-.846c.578.371,1.141.77,1.675,1.185a.5.5,0,0,1-.309.9m-4.27-2.61a.5.5,0,0,1-.213-.048c-.589-.276-1.2-.531-1.811-.756a.5.5,0,0,1,.347-.943c.64.236,1.276.5,1.891.79a.5.5,0,0,1-.214.958M209.9,122.3a.509.509,0,0,1-.113-.013c-.637-.146-1.286-.266-1.931-.357a.5.5,0,1,1,.14-1c.673.1,1.35.221,2.014.372a.5.5,0,0,1-.112.993" transform="translate(-35.145 -60.151)" fill="#b2b2b2"/>
      <path id="Path_145905" data-name="Path 145905" d="M73.079,281.716a.5.5,0,0,1-.485-.372q-.134-.5-.251-.989a.5.5,0,0,1,.978-.233q.114.476.244.96a.5.5,0,0,1-.355.616.489.489,0,0,1-.131.018" transform="translate(-35.976 -139.138)" fill="#b2b2b2"/>
      <path id="Path_145906" data-name="Path 145906" d="M336.82,120.49a1.005,1.005,0,1,1-1.005-1.005,1.005,1.005,0,0,1,1.005,1.005" transform="translate(-166.531 -59.43)" fill="#b2b2b2"/>
      <path id="Subtraction_10" data-name="Subtraction 10" d="M-1245.492,1225.747h0a22.424,22.424,0,0,1-5.71-7.725,7.416,7.416,0,0,1-.626-3.027,6.344,6.344,0,0,1,6.337-6.337,6.344,6.344,0,0,1,6.337,6.337,7.429,7.429,0,0,1-.626,3.027,22.424,22.424,0,0,1-5.71,7.725Zm0-14.249a3.145,3.145,0,0,0-3.141,3.142,3.145,3.145,0,0,0,3.141,3.142,3.146,3.146,0,0,0,3.142-3.142A3.146,3.146,0,0,0-1245.492,1211.5Z" transform="translate(1414.777 -1167.2)" fill="#b2b2b2" stroke="rgba(0,0,0,0)" stroke-width="1"/>
      <path id="Path_145909" data-name="Path 145909" d="M65.829,307.339l7.737-1.464.118,2.911-6.224.251a1.649,1.649,0,0,1-1.627-1.115l-.125-.387a.15.15,0,0,1,.121-.2" transform="translate(-32.678 -152.139)" fill="#b2b2b2"/>
      <path id="Path_145910" data-name="Path 145910" d="M90.335,296.312l-6.591,4.308,1.933,2.18,4.66-4.132a1.649,1.649,0,0,0,.4-1.932l-.178-.365a.15.15,0,0,0-.224-.058" transform="translate(-41.653 -147.368)" fill="#b2b2b2"/>
      <path id="Path_145911" data-name="Path 145911" d="M79.745,286.854l-3.122,1.918L77.4,290.7l2.3-2.544a.988.988,0,0,0,.26-1.068l-.088-.2a.084.084,0,0,0-.124-.037" transform="translate(-38.111 -142.671)" fill="#b2b2b2"/>
      <path id="Path_145912" data-name="Path 145912" d="M69.432,291.466l3.58-.782.777,1.929-3.419-.242a.987.987,0,0,1-.928-.589l-.073-.2a.083.083,0,0,1,.063-.112" transform="translate(-34.5 -144.583)" fill="#b2b2b2"/>
      <path id="Path_145913" data-name="Path 145913" d="M81.484,306.1a1.46,1.46,0,0,0,.774.748.986.986,0,0,0,.747.014,1.027,1.027,0,0,0,.565-.636,1.471,1.471,0,0,0,0-.977l-2.853-8.681-2.358-4.833A23.046,23.046,0,0,0,75.2,286.9h0a.225.225,0,0,0-.4.159,23.05,23.05,0,0,0,1.069,5.676l1.65,5.117Z" transform="translate(-37.205 -142.662)" fill="#b2b2b2"/>
      <path id="Path_145914" data-name="Path 145914" d="M460.98,356.279a.5.5,0,0,1,0-1.005q1,0,2-.021h.01a.5.5,0,0,1,.01,1.005q-1.007.02-2.019.021Zm-3.015-.031h-.012q-1.009-.024-2.017-.064a.5.5,0,0,1-.483-.522.51.51,0,0,1,.522-.483q1,.039,2,.063a.5.5,0,0,1-.012,1.005m8.038-.085a.5.5,0,0,1-.022-1q1-.045,2-.108a.5.5,0,0,1,.064,1q-1,.063-2.015.109H466m-13.059-.135h-.033q-1.008-.066-2.014-.147a.5.5,0,1,1,.082-1q1,.082,2,.146a.5.5,0,0,1-.032,1m18.07-.2a.5.5,0,0,1-.045-1q1-.09,1.991-.2a.5.5,0,0,1,.11,1q-1,.11-2.01.2l-.046,0m-23.079-.222-.054,0q-1.006-.106-2.006-.23a.5.5,0,0,1,.123-1q.993.123,1.989.228a.5.5,0,0,1-.052,1m28.071-.356a.5.5,0,0,1-.07-1q1-.141,1.977-.3a.5.5,0,0,1,.162.993q-.991.161-2,.3a.494.494,0,0,1-.071.005m-33.058-.281a.539.539,0,0,1-.075-.006q-1-.15-1.994-.316a.5.5,0,1,1,.166-.992q.985.165,1.977.314a.5.5,0,0,1-.074,1m38.013-.56a.5.5,0,0,1-.1-1q.987-.2,1.955-.415a.5.5,0,0,1,.221.981q-.979.221-1.979.42a.472.472,0,0,1-.1.01m-42.968-.294a.5.5,0,0,1-.1-.01q-1-.195-1.979-.407a.5.5,0,1,1,.212-.983q.975.21,1.96.4a.5.5,0,0,1-.1,1m47.863-.846a.5.5,0,0,1-.13-.988q.973-.261,1.92-.545a.5.5,0,1,1,.289.963q-.961.288-1.949.553a.494.494,0,0,1-.131.017m-52.772-.24a.5.5,0,0,1-.121-.015q-.933-.231-1.852-.477a.5.5,0,1,1,.26-.971q.911.244,1.833.472a.5.5,0,0,1-.12.991m57.573-1.245a.5.5,0,0,1-.168-.976c.632-.224,1.26-.459,1.866-.7a.5.5,0,1,1,.37.935c-.617.244-1.257.484-1.9.712a.506.506,0,0,1-.168.029m4.653-1.9a.5.5,0,0,1-.214-.957c.608-.285,1.206-.584,1.779-.885a.5.5,0,1,1,.469.889c-.587.309-1.2.614-1.821.906a.5.5,0,0,1-.213.048m4.409-2.406a.5.5,0,0,1-.27-.927c.554-.352,1.108-.725,1.647-1.108a.5.5,0,1,1,.583.82c-.552.393-1.121.775-1.69,1.136a.5.5,0,0,1-.269.079m4.056-2.966a.5.5,0,0,1-.323-.888c.512-.43,1.013-.872,1.486-1.314a.5.5,0,0,1,.686.734c-.487.455-1,.909-1.526,1.35a.5.5,0,0,1-.323.117m3.618-3.483a.5.5,0,0,1-.374-.838c.446-.5.874-1.006,1.272-1.513a.5.5,0,1,1,.79.62c-.411.524-.853,1.05-1.313,1.564a.5.5,0,0,1-.374.167m3.021-4.008a.5.5,0,0,1-.427-.766c.351-.569.673-1.147.958-1.716a.5.5,0,1,1,.9.45c-.3.6-.635,1.2-1,1.793a.5.5,0,0,1-.429.239m2.121-4.543a.517.517,0,0,1-.154-.024.5.5,0,0,1-.324-.633c.2-.613.372-1.251.518-1.9a.5.5,0,1,1,.981.223c-.153.674-.335,1.341-.542,1.982a.5.5,0,0,1-.478.348m1.019-4.913-.053,0a.5.5,0,0,1-.447-.552c.068-.649.113-1.311.135-1.97a.5.5,0,0,1,.5-.487h.017a.5.5,0,0,1,.486.519c-.022.682-.069,1.369-.139,2.042a.5.5,0,0,1-.5.45m.077-5.021a.5.5,0,0,1-.5-.466c-.047-.657-.118-1.318-.208-1.965a.5.5,0,0,1,1-.139c.094.669.166,1.353.215,2.033a.5.5,0,0,1-.465.537h-.036m-.79-4.957a.5.5,0,0,1-.487-.378c-.165-.649-.353-1.285-.559-1.889a.5.5,0,1,1,.952-.324c.214.63.41,1.29.581,1.964a.5.5,0,0,1-.487.627m-1.746-4.7a.5.5,0,0,1-.447-.271c-.3-.575-.63-1.144-.986-1.693a.5.5,0,0,1,.843-.548c.374.576.723,1.174,1.035,1.779a.5.5,0,0,1-.446.733m-2.828-4.139a.5.5,0,0,1-.379-.172c-.428-.491-.885-.97-1.356-1.422a.5.5,0,1,1,.7-.725c.493.473.97.974,1.418,1.487a.5.5,0,0,1-.379.833m-3.69-3.4a.5.5,0,0,1-.3-.1c-.522-.388-1.07-.76-1.628-1.109a.5.5,0,1,1,.532-.853c.581.362,1.151.751,1.695,1.155a.5.5,0,0,1-.3.906m-4.31-2.571a.5.5,0,0,1-.213-.047c-.592-.278-1.2-.536-1.815-.768a.5.5,0,1,1,.354-.94c.637.24,1.273.509,1.888.8a.5.5,0,0,1-.214.957m-4.729-1.679a.515.515,0,0,1-.123-.015c-.657-.165-1.31-.316-1.941-.45a.5.5,0,0,1,.209-.984c.642.137,1.307.291,1.976.458a.5.5,0,0,1-.122.99m-4.925-.986a.6.6,0,0,1-.073-.005c-.657-.1-1.32-.174-1.97-.235a.5.5,0,1,1,.093-1c.667.062,1.347.143,2.022.24a.5.5,0,0,1-.072,1m-7.017-.377a.5.5,0,0,1-.016-1c.671-.022,1.346-.031,2.034-.021a.5.5,0,0,1-.008,1.005H485.6c-.673-.01-1.331,0-1.986.02H483.6" transform="translate(-214.245 -148.57)" fill="#b2b2b2"/>
      <path id="Subtraction_5" data-name="Subtraction 5" d="M-1245.492,1225.747h0a22.424,22.424,0,0,1-5.71-7.725,7.416,7.416,0,0,1-.626-3.027,6.344,6.344,0,0,1,6.337-6.337,6.344,6.344,0,0,1,6.337,6.337,7.429,7.429,0,0,1-.626,3.027,22.424,22.424,0,0,1-5.71,7.725Zm0-14.25a3.145,3.145,0,0,0-3.141,3.142,3.145,3.145,0,0,0,3.141,3.142,3.146,3.146,0,0,0,3.142-3.142A3.146,3.146,0,0,0-1245.492,1211.5Z" transform="translate(1510.834 -1077.344)" fill="#b2b2b2" stroke="rgba(0,0,0,0)" stroke-width="1"/>
      <path id="Path_145917" data-name="Path 145917" d="M411.308,382.068l-3.791,6.9-2.322-1.761,3.764-4.963a1.65,1.65,0,0,1,1.9-.547l.378.15a.15.15,0,0,1,.075.219" transform="translate(-201.54 -189.8)" fill="#b2b2b2"/>
      <path id="Path_145918" data-name="Path 145918" d="M405.289,406.555l.867-7.827-2.912.106.226,6.224a1.65,1.65,0,0,0,1.236,1.537l.4.1a.15.15,0,0,0,.187-.136" transform="translate(-200.569 -198.323)" fill="#b2b2b2"/>
      <path id="Path_145919" data-name="Path 145919" d="M422.078,405.29l.505-3.629-1.982-.627.5,3.39a.988.988,0,0,0,.658.88l.21.058a.083.083,0,0,0,.107-.072" transform="translate(-209.202 -199.47)" fill="#b2b2b2"/>
      <path id="Path_145920" data-name="Path 145920" d="M424.257,395.559l-1.673,3.26-1.983-.627,2.36-2.485a.988.988,0,0,1,1.045-.341l.2.073a.083.083,0,0,1,.046.12" transform="translate(-209.202 -196.628)" fill="#b2b2b2"/>
      <path id="Path_145921" data-name="Path 145921" d="M389.05,389.155a1.462,1.462,0,0,0-1.07.121.987.987,0,0,0-.487.568,1.026,1.026,0,0,0,.132.84,1.473,1.473,0,0,0,.754.622l8.513,3.319,5.229,1.254a23.051,23.051,0,0,0,5.739.631h0a.225.225,0,0,0,.129-.407,23.055,23.055,0,0,0-5.061-2.785l-5-1.981Z" transform="translate(-192.715 -193.536)" fill="#b2b2b2"/>
      <path id="Path_145922" data-name="Path 145922" d="M527.936,299.269a1.005,1.005,0,1,1-1.005-1.005,1,1,0,0,1,1.005,1.005" transform="translate(-261.59 -148.353)" fill="#b2b2b2"/>
      <path id="Path_145923" data-name="Path 145923" d="M83.15,366.655a.5.5,0,0,1-.005-1.005q1-.009,2-.045a.494.494,0,0,1,.52.485.5.5,0,0,1-.485.52q-1.01.036-2.023.046Zm-3.015-.031H80.12q-1.011-.031-2.022-.088a.5.5,0,1,1,.058-1q1,.057,1.994.086a.5.5,0,0,1-.015,1.005m8.035-.179a.5.5,0,0,1-.037-1q1-.074,1.991-.173a.5.5,0,0,1,.1,1q-1.007.1-2.015.174l-.038,0M75.121,366.3l-.05,0q-1.006-.1-2.011-.224a.5.5,0,1,1,.125-1q.991.124,1.984.221a.5.5,0,0,1-.049,1m18.047-.388a.5.5,0,0,1-.068-1q.989-.136,1.976-.3a.5.5,0,0,1,.162.993q-1,.163-2,.3a.458.458,0,0,1-.069,0m-23.028-.271a.473.473,0,0,1-.083-.007q-1-.167-1.991-.362a.5.5,0,0,1,.194-.987q.98.192,1.964.357a.5.5,0,0,1-.082,1m27.983-.567a.5.5,0,0,1-.1-1q.98-.2,1.955-.418a.5.5,0,1,1,.221.981q-.986.223-1.978.423a.48.48,0,0,1-.1.01m-32.907-.435a.5.5,0,0,1-.118-.014q-.982-.236-1.961-.5a.5.5,0,0,1,.261-.971q.966.261,1.935.493a.5.5,0,0,1-.117.991m37.8-.7a.5.5,0,0,1-.128-.989q.967-.255,1.927-.533a.5.5,0,1,1,.28.966q-.973.281-1.95.539a.513.513,0,0,1-.128.017m-42.645-.64a.5.5,0,0,1-.152-.023q-.963-.3-1.921-.636a.5.5,0,0,1,.329-.95q.945.328,1.895.627a.5.5,0,0,1-.151.982m47.465-.784a.5.5,0,0,1-.156-.98q.949-.311,1.892-.644a.5.5,0,0,1,.335.948q-.954.336-1.915.651a.5.5,0,0,1-.156.025m-52.2-.895a.5.5,0,0,1-.184-.036q-.939-.37-1.872-.769a.5.5,0,0,1,.4-.925q.92.394,1.846.759a.5.5,0,0,1-.184.97m56.931-.8a.5.5,0,0,1-.184-.971q.931-.365,1.854-.751a.5.5,0,1,1,.388.928q-.933.39-1.875.759a.5.5,0,0,1-.183.035M51.041,359.6a.5.5,0,0,1-.222-.052c-.6-.3-1.21-.612-1.8-.933a.5.5,0,0,1,.479-.884c.58.315,1.175.624,1.767.916a.5.5,0,0,1-.223.953m66.157-.749a.5.5,0,0,1-.21-.959q.909-.417,1.809-.853a.5.5,0,0,1,.439.9q-.911.442-1.829.862a.5.5,0,0,1-.209.046m-70.546-1.691a.5.5,0,0,1-.265-.076c-.571-.355-1.143-.727-1.7-1.105a.5.5,0,0,1,.564-.832c.547.371,1.108.736,1.669,1.085a.5.5,0,0,1-.266.929m75.056-.527a.5.5,0,0,1-.234-.947q.884-.466,1.759-.951a.5.5,0,1,1,.488.879q-.885.492-1.779.963a.5.5,0,0,1-.234.058M42.525,354.3a.5.5,0,0,1-.306-.1c-.535-.411-1.069-.837-1.586-1.266a.5.5,0,0,1,.643-.774c.507.422,1.03.84,1.555,1.243a.5.5,0,0,1-.306.9m83.566-.13a.5.5,0,0,1-.259-.933q.858-.515,1.705-1.046a.5.5,0,1,1,.535.851q-.857.538-1.723,1.057a.5.5,0,0,1-.258.071m4.242-2.7a.5.5,0,0,1-.282-.919q.829-.559,1.646-1.136a.5.5,0,0,1,.581.821q-.826.584-1.664,1.149a.5.5,0,0,1-.28.086m-91.64-.42a.5.5,0,0,1-.343-.135c-.488-.455-.979-.93-1.458-1.411a.5.5,0,1,1,.713-.709c.47.472.952.938,1.43,1.385a.5.5,0,0,1-.342.87m-3.512-3.591a.5.5,0,0,1-.375-.168c-.448-.5-.894-1.02-1.324-1.537a.5.5,0,0,1,.774-.642c.423.508.86,1.016,1.3,1.51a.5.5,0,0,1-.374.837M32,343.573a.5.5,0,0,1-.4-.2q-.61-.816-1.187-1.643a.5.5,0,1,1,.824-.575q.568.813,1.168,1.616a.5.5,0,0,1-.4.8m-2.843-4.145a.5.5,0,0,1-.426-.235q-.543-.863-1.051-1.732a.5.5,0,1,1,.867-.508q.5.854,1.036,1.7a.5.5,0,0,1-.425.77m-2.51-4.355a.5.5,0,0,1-.445-.268q-.475-.9-.918-1.805a.5.5,0,1,1,.9-.443q.437.89.906,1.78a.5.5,0,0,1-.444.736m-2.183-4.529a.5.5,0,0,1-.46-.3q-.412-.936-.788-1.866a.5.5,0,1,1,.931-.378q.372.916.778,1.84a.5.5,0,0,1-.258.663.511.511,0,0,1-.2.042m-1.862-4.67a.5.5,0,0,1-.473-.333q-.348-.965-.66-1.915a.5.5,0,1,1,.954-.314q.308.936.651,1.889a.5.5,0,0,1-.473.673m-1.542-4.787a.5.5,0,0,1-.483-.365q-.283-.992-.529-1.955a.5.5,0,1,1,.974-.249q.243.949.522,1.929a.5.5,0,0,1-.345.621.526.526,0,0,1-.138.019m-1.212-4.881a.5.5,0,0,1-.491-.4q-.216-1.021-.389-1.99a.5.5,0,1,1,.989-.177q.172.953.383,1.961a.5.5,0,0,1-.389.6.523.523,0,0,1-.1.011m-.843-4.958a.5.5,0,0,1-.5-.44q-.072-.575-.129-1.121a.5.5,0,0,1,1-.1q.055.534.127,1.1a.5.5,0,0,1-.436.562.546.546,0,0,1-.064,0" transform="translate(-9.14 -153.759)" fill="#b2b2b2"/>
      <path id="Path_145924" data-name="Path 145924" d="M250.853,384.342a1.005,1.005,0,1,1-1.005-1.005,1,1,0,0,1,1.005,1.005" transform="translate(-123.772 -190.667)" fill="#b2b2b2"/>
      <path id="Subtraction_4" data-name="Subtraction 4" d="M-1245.492,1225.747h0a22.427,22.427,0,0,1-5.71-7.725,7.414,7.414,0,0,1-.626-3.026,6.344,6.344,0,0,1,6.337-6.337,6.344,6.344,0,0,1,6.337,6.337,7.43,7.43,0,0,1-.626,3.026,22.427,22.427,0,0,1-5.71,7.725Zm0-14.25a3.145,3.145,0,0,0-3.141,3.142,3.145,3.145,0,0,0,3.141,3.142,3.146,3.146,0,0,0,3.142-3.142A3.146,3.146,0,0,0-1245.492,1211.5Z" transform="translate(1371.569 -1034.585)" fill="#b2b2b2" stroke="rgba(0,0,0,0)" stroke-width="1"/>
      <path id="Path_145927" data-name="Path 145927" d="M25.963,284.193l-7.838-.757.7-2.828,6.045,1.5a1.649,1.649,0,0,1,1.251,1.525l.012.407a.15.15,0,0,1-.171.155" transform="translate(-9.015 -139.571)" fill="#b2b2b2"/>
      <path id="Path_145928" data-name="Path 145928" d="M.287,286.181l7.533-2.294-1.247-2.633L.944,283.919a1.65,1.65,0,0,0-.924,1.743l.069.4a.15.15,0,0,0,.2.118" transform="translate(0 -139.892)" fill="#b2b2b2"/>
      <path id="Path_145929" data-name="Path 145929" d="M11.246,301.064l3.534-.969-.207-2.069-2.916,1.8a.988.988,0,0,0-.549.952l.03.215a.083.083,0,0,0,.108.07" transform="translate(-5.522 -148.235)" fill="#b2b2b2"/>
      <path id="Path_145930" data-name="Path 145930" d="M21.871,300.345l-3.655-.25-.207-2.069,3.215,1.187a.989.989,0,0,1,.726.825l.014.217a.084.084,0,0,1-.092.09" transform="translate(-8.957 -148.235)" fill="#b2b2b2"/>
      <path id="Path_145931" data-name="Path 145931" d="M14.819,264.671a1.462,1.462,0,0,0-.534-.935.985.985,0,0,0-.714-.222,1.027,1.027,0,0,0-.72.453,1.469,1.469,0,0,0-.273.938l.313,9.132.914,5.3a23.05,23.05,0,0,0,1.687,5.522h0a.225.225,0,0,0,.424-.042,23.032,23.032,0,0,0,.56-5.749l-.154-5.374Z" transform="translate(-6.255 -131.067)" fill="#b2b2b2"/>
      <path id="Path_145932" data-name="Path 145932" d="M371.125,274.877q-.472,0-.944-.011a.5.5,0,0,1,.023-1.005c.326.008.65.013.976.011s.669,0,1-.012a.508.508,0,0,1,.515.49.5.5,0,0,1-.49.515c-.361.009-.726.011-1.083.012m4.07-.188a.5.5,0,0,1-.047-1c.658-.061,1.32-.139,1.967-.23a.5.5,0,0,1,.141,1c-.662.093-1.339.172-2.013.236l-.048,0m-8,0-.049,0c-.688-.066-1.367-.156-2.021-.265a.5.5,0,0,1,.165-.992c.632.105,1.289.191,1.953.256a.5.5,0,0,1-.048,1m12.951-.753a.5.5,0,0,1-.1-.994c.641-.136,1.29-.289,1.928-.455a.5.5,0,0,1,.253.973c-.652.17-1.316.327-1.973.466a.534.534,0,0,1-.1.011m-17.869-.17a.49.49,0,0,1-.141-.02c-.672-.2-1.325-.42-1.941-.666a.5.5,0,1,1,.373-.933c.586.234,1.207.447,1.849.634a.5.5,0,0,1-.141.985m22.7-1.15a.5.5,0,0,1-.16-.979c.621-.21,1.246-.437,1.86-.678a.5.5,0,0,1,.366.937c-.628.246-1.27.479-1.905.694a.5.5,0,0,1-.161.026m-27.273-.851a.5.5,0,0,1-.268-.077,14,14,0,0,1-1.671-1.233.5.5,0,0,1,.658-.761,12.846,12.846,0,0,0,1.55,1.143.5.5,0,0,1-.268.928m31.914-1.031a.5.5,0,0,1-.218-.956c.6-.285,1.189-.587,1.763-.9a.5.5,0,0,1,.479.884c-.589.319-1.2.629-1.808.921a.5.5,0,0,1-.216.049m-35.52-2.391a.5.5,0,0,1-.417-.221q-.148-.219-.287-.447a8.059,8.059,0,0,1-.689-1.436.5.5,0,0,1,.944-.345,7.11,7.11,0,0,0,.6,1.258q.127.207.261.407a.5.5,0,0,1-.416.784m39.889-.051a.5.5,0,0,1-.273-.925c.554-.358,1.1-.734,1.63-1.117a.5.5,0,1,1,.59.814c-.542.394-1.106.78-1.675,1.148a.5.5,0,0,1-.272.08M398,265.3a.5.5,0,0,1-.327-.884c.5-.429.991-.876,1.461-1.328a.5.5,0,0,1,.7.724c-.484.466-.989.926-1.5,1.367a.5.5,0,0,1-.328.122m-45.339-1.675a.5.5,0,0,1-.5-.495v-.1a10.254,10.254,0,0,1,.2-2,.5.5,0,1,1,.986.2,9.306,9.306,0,0,0-.177,1.8v.086a.5.5,0,0,1-.495.51Zm48.893-1.849a.5.5,0,0,1-.38-.831l.133-.153q.587-.682,1.146-1.369a.5.5,0,0,1,.78.635q-.568.7-1.165,1.391l-.133.154a.5.5,0,0,1-.38.173m-47.666-2.947a.5.5,0,0,1-.434-.755,7.836,7.836,0,0,1,1.305-1.689.5.5,0,0,1,.7.721,6.8,6.8,0,0,0-1.137,1.473.5.5,0,0,1-.435.25m50.8-.954a.5.5,0,0,1-.4-.8q.6-.8,1.178-1.607a.5.5,0,1,1,.817.586q-.583.813-1.191,1.625a.5.5,0,0,1-.4.2m2.9-4.083a.5.5,0,0,1-.281-.087.5.5,0,0,1-.134-.7q.564-.83,1.114-1.66a.5.5,0,0,1,.837.557q-.554.833-1.12,1.668a.5.5,0,0,1-.416.22m3.2-4.411-.84-.551q.547-.835,1.1-1.666a.5.5,0,1,1,.838.554q-.547.829-1.093,1.663m-.427-.266h0Zm2.774-3.668a.5.5,0,0,1-.415-.786q.567-.829,1.149-1.651a.5.5,0,0,1,.819.582q-.578.813-1.139,1.637a.5.5,0,0,1-.415.219m2.923-4.064a.5.5,0,0,1-.4-.808q.611-.8,1.25-1.584a.5.5,0,0,1,.78.635q-.632.775-1.231,1.56a.5.5,0,0,1-.4.2m3.208-3.844a.5.5,0,0,1-.37-.843c.455-.5.926-.988,1.4-1.462a.5.5,0,1,1,.712.71c-.464.465-.925.947-1.372,1.433a.5.5,0,0,1-.37.162m3.569-3.512a.5.5,0,0,1-.334-.878c.5-.445,1.017-.888,1.536-1.316a.5.5,0,0,1,.639.776c-.51.42-1.017.854-1.507,1.291a.5.5,0,0,1-.334.127m3.9-3.146a.5.5,0,0,1-.3-.908c.537-.393,1.094-.784,1.655-1.163a.5.5,0,0,1,.562.833c-.55.371-1.1.755-1.624,1.14a.5.5,0,0,1-.3.1m4.178-2.761a.5.5,0,0,1-.258-.934c.575-.342,1.166-.679,1.756-1a.5.5,0,1,1,.482.882c-.58.317-1.16.647-1.723.984a.5.5,0,0,1-.257.07m4.417-2.358a.5.5,0,0,1-.217-.957c.606-.288,1.227-.568,1.843-.834a.5.5,0,1,1,.4.923c-.6.26-1.213.536-1.808.819a.5.5,0,0,1-.216.049m4.617-1.938a.5.5,0,0,1-.173-.975c.63-.231,1.273-.453,1.911-.66a.5.5,0,0,1,.311.956c-.627.2-1.259.421-1.877.647a.505.505,0,0,1-.172.031m4.776-1.5a.5.5,0,0,1-.127-.989c.655-.172,1.316-.333,1.965-.478a.5.5,0,0,1,.219.981c-.636.142-1.285.3-1.928.469a.494.494,0,0,1-.129.017m4.9-1.044a.5.5,0,0,1-.081-1c.66-.108,1.334-.205,2-.288a.5.5,0,1,1,.125,1c-.656.082-1.317.177-1.964.283a.578.578,0,0,1-.082.007m4.974-.569a.5.5,0,0,1-.032-1c.672-.044,1.353-.074,2.022-.091a.49.49,0,0,1,.515.49.5.5,0,0,1-.49.515c-.656.016-1.323.047-1.982.089h-.033" transform="translate(-175.157 -109.231)" fill="#b2b2b2"/>
      <path id="Path_145933" data-name="Path 145933" d="M364.156,289.4a1.005,1.005,0,1,1-1.005-1.005,1,1,0,0,1,1.005,1.005" transform="translate(-180.127 -143.445)" fill="#b2b2b2"/>
      <path id="Subtraction_6" data-name="Subtraction 6" d="M-1245.445,1225.872h0a22.594,22.594,0,0,1-5.752-7.782,7.469,7.469,0,0,1-.631-3.048,6.391,6.391,0,0,1,6.384-6.384,6.39,6.39,0,0,1,6.383,6.384,7.485,7.485,0,0,1-.631,3.048,22.592,22.592,0,0,1-5.751,7.782Zm0-14.354a3.169,3.169,0,0,0-3.165,3.165,3.168,3.168,0,0,0,3.165,3.164,3.168,3.168,0,0,0,3.165-3.164A3.169,3.169,0,0,0-1245.445,1211.518Z" transform="translate(1428.47 -1082.429)" fill="#b2b2b2" stroke="rgba(0,0,0,0)" stroke-width="1"/>
      <path id="Path_145936" data-name="Path 145936" d="M581.307,230.321l1.809-7.664,2.708,1.077-2.3,5.788a1.648,1.648,0,0,1-1.68,1.033l-.4-.043a.15.15,0,0,1-.131-.19" transform="translate(-289.133 -110.747)" fill="#b2b2b2"/>
      <path id="Path_145937" data-name="Path 145937" d="M582.5,204.42l1.255,7.774,2.778-.88-1.881-5.938a1.648,1.648,0,0,0-1.6-1.151l-.406.015a.149.149,0,0,0-.144.18" transform="translate(-289.729 -101.579)" fill="#b2b2b2"/>
      <path id="Path_145938" data-name="Path 145938" d="M568.15,213.476l.482,3.632,2.078.074-1.39-3.133a.986.986,0,0,0-.87-.672h-.217a.084.084,0,0,0-.084.1" transform="translate(-282.59 -106.132)" fill="#b2b2b2"/>
      <path id="Path_145939" data-name="Path 145939" d="M567.633,224.388l.742-3.588,2.078.074-1.611,3.025a.988.988,0,0,1-.915.608l-.217-.016a.084.084,0,0,1-.076-.1" transform="translate(-282.333 -109.823)" fill="#b2b2b2"/>
      <path id="Path_145940" data-name="Path 145940" d="M585.241,221.2a1.455,1.455,0,0,0,1-.4.985.985,0,0,0,.317-.677,1.026,1.026,0,0,0-.352-.775,1.469,1.469,0,0,0-.893-.4l-9.091-.925-5.374.189a23.036,23.036,0,0,0-5.7.925h0a.225.225,0,0,0-.015.427,23.019,23.019,0,0,0,5.621,1.331l5.345.575Z" transform="translate(-281.018 -108.441)" fill="#b2b2b2"/>
      <path id="Path_145941" data-name="Path 145941" d="M425.361,131.965a.5.5,0,0,1-.461-.3q-.407-.927-.8-1.853a.5.5,0,0,1,.926-.391q.388.92.792,1.839a.5.5,0,0,1-.459.705m-1.925-4.64a.5.5,0,0,1-.468-.321q-.366-.944-.71-1.892a.5.5,0,1,1,.945-.343q.34.938.7,1.872a.5.5,0,0,1-.469.684m-1.682-4.734a.5.5,0,0,1-.478-.349q-.311-.964-.594-1.935a.5.5,0,0,1,.965-.282q.279.957.586,1.908a.5.5,0,0,1-.325.632.5.5,0,0,1-.154.025m-1.373-4.833a.5.5,0,0,1-.488-.383q-.241-.984-.452-1.975a.5.5,0,1,1,.984-.208q.207.976.445,1.944a.5.5,0,0,1-.369.608.516.516,0,0,1-.12.015m47.794-2.076a.5.5,0,0,1-.123-.99c.651-.166,1.294-.346,1.909-.537a.5.5,0,0,1,.3.96c-.632.2-1.292.38-1.96.55a.5.5,0,0,1-.124.016m4.774-1.557a.5.5,0,0,1-.19-.969c.618-.252,1.224-.524,1.8-.808a.5.5,0,0,1,.444.9c-.6.294-1.226.575-1.865.837a.51.51,0,0,1-.19.038m-53.567-1.292a.5.5,0,0,1-.5-.423c-.107-.667-.2-1.342-.286-2.007a.5.5,0,0,1,1-.125c.082.653.176,1.317.281,1.974a.5.5,0,0,1-.417.575.54.54,0,0,1-.08.006m58.023-1.012a.5.5,0,0,1-.273-.925c.555-.359,1.094-.742,1.6-1.138a.5.5,0,0,1,.618.793c-.53.414-1.093.814-1.674,1.189a.5.5,0,0,1-.272.081m3.873-3.182a.5.5,0,0,1-.363-.85,19.142,19.142,0,0,0,1.279-1.48.5.5,0,1,1,.793.617,20.318,20.318,0,0,1-1.346,1.558.5.5,0,0,1-.363.155m-62.474-.8a.5.5,0,0,1-.5-.467q-.053-.731-.085-1.468c-.009-.184-.016-.371-.022-.559a.5.5,0,1,1,1-.034c.006.184.014.366.022.548q.032.725.083,1.441a.5.5,0,0,1-.465.537H418.8m65.449-3.23a.5.5,0,0,1-.438-.748c.314-.561.607-1.152.871-1.755a.5.5,0,1,1,.921.4c-.277.633-.585,1.253-.914,1.843a.5.5,0,0,1-.439.257m-65.583-1.793h-.009a.5.5,0,0,1-.494-.512c.013-.687.039-1.37.079-2.03a.5.5,0,1,1,1,.06c-.039.647-.065,1.316-.077,1.988a.5.5,0,0,1-.5.493m67.493-2.84a.5.5,0,0,1-.483-.642c.177-.617.334-1.261.465-1.912a.5.5,0,0,1,.986.2c-.138.678-.3,1.347-.485,1.99a.5.5,0,0,1-.483.364m-67.131-2.172a.48.48,0,0,1-.065,0,.5.5,0,0,1-.433-.563c.088-.678.193-1.355.312-2.011a.5.5,0,1,1,.989.179c-.116.64-.219,1.3-.305,1.962a.5.5,0,0,1-.5.437m68.048-2.76-.048,0a.5.5,0,0,1-.452-.548c.062-.652.1-1.316.121-1.972a.51.51,0,0,1,.516-.489.5.5,0,0,1,.49.516c-.019.679-.061,1.366-.125,2.041a.5.5,0,0,1-.5.455m-67.084-2.168a.5.5,0,0,1-.487-.632c.174-.654.368-1.312.578-1.954a.5.5,0,0,1,.956.312c-.2.625-.393,1.264-.562,1.9a.5.5,0,0,1-.486.373m67.132-2.852a.5.5,0,0,1-.5-.463c-.051-.656-.126-1.316-.223-1.962a.5.5,0,0,1,.994-.15c.1.67.178,1.354.231,2.034a.5.5,0,0,1-.462.54h-.039m-65.5-1.9a.5.5,0,0,1-.463-.7c.264-.622.551-1.245.851-1.852a.5.5,0,0,1,.9.446c-.292.589-.57,1.195-.827,1.8a.5.5,0,0,1-.463.306m64.657-3.049a.5.5,0,0,1-.485-.371c-.173-.635-.373-1.267-.6-1.876a.5.5,0,0,1,.944-.344c.232.636.44,1.294.621,1.956a.5.5,0,0,1-.485.635m-62.365-1.417a.5.5,0,0,1-.429-.763c.348-.573.72-1.148,1.107-1.711a.5.5,0,0,1,.829.569c-.376.547-.738,1.106-1.077,1.663a.5.5,0,0,1-.43.242M484.464,80.4a.5.5,0,0,1-.447-.272c-.3-.581-.63-1.154-.979-1.7a.5.5,0,1,1,.848-.539c.364.574.709,1.173,1.023,1.781a.5.5,0,0,1-.216.678.5.5,0,0,1-.23.056m-57.651-.839a.5.5,0,0,1-.389-.82c.424-.521.87-1.04,1.325-1.544a.5.5,0,0,1,.746.674c-.444.491-.879,1-1.292,1.505a.5.5,0,0,1-.39.185m54.872-3.335a.5.5,0,0,1-.387-.18c-.415-.5-.861-.986-1.324-1.454a.5.5,0,1,1,.714-.708c.483.488.948,1,1.382,1.516a.5.5,0,0,1-.385.825m-51.461-.351a.5.5,0,0,1-.348-.865c.482-.461.986-.923,1.5-1.372a.5.5,0,0,1,.662.756c-.5.439-.995.89-1.465,1.341a.5.5,0,0,1-.348.14m47.86-3.14a.5.5,0,0,1-.312-.108c-.509-.4-1.044-.8-1.59-1.166a.5.5,0,1,1,.564-.832c.566.384,1.121.791,1.65,1.209a.5.5,0,0,1-.313.9m-44.033-.11a.5.5,0,0,1-.3-.906c.541-.4,1.1-.8,1.668-1.171a.5.5,0,0,1,.556.838c-.551.365-1.1.749-1.625,1.14a.5.5,0,0,1-.3.1m39.836-2.64a.5.5,0,0,1-.239-.061c-.582-.316-1.177-.621-1.767-.906a.5.5,0,1,1,.437-.905c.605.292,1.214.6,1.81.928a.5.5,0,0,1-.241.944m-35.61-.079a.5.5,0,0,1-.244-.942c.591-.327,1.2-.643,1.809-.938a.5.5,0,1,1,.439.9c-.594.288-1.186.6-1.761.914a.5.5,0,0,1-.243.063m31.059-2.045a.506.506,0,0,1-.184-.035c-.616-.242-1.243-.47-1.865-.677a.5.5,0,0,1,.318-.953c.637.213,1.281.446,1.914.7a.5.5,0,0,1-.184.971m-26.511-.087a.5.5,0,0,1-.182-.972c.633-.246,1.278-.477,1.919-.688a.5.5,0,0,1,.313.955c-.623.205-1.252.43-1.868.67a.5.5,0,0,1-.182.034m21.727-1.438a.524.524,0,0,1-.121-.015c-.642-.158-1.295-.3-1.939-.422a.5.5,0,0,1,.187-.988c.661.125,1.331.27,1.992.433a.5.5,0,0,1-.12.991m-16.933-.063a.5.5,0,0,1-.117-.992c.662-.158,1.333-.3,2-.419a.5.5,0,1,1,.178.989c-.644.117-1.3.254-1.941.408a.52.52,0,0,1-.117.014m11.984-.8-.052,0c-.653-.067-1.318-.117-1.977-.147a.5.5,0,0,1-.478-.526.493.493,0,0,1,.526-.478c.678.032,1.361.082,2.033.152a.5.5,0,0,1-.051,1m-7.029-.027a.5.5,0,0,1-.047-1c.677-.064,1.361-.11,2.035-.136a.5.5,0,0,1,.039,1c-.655.026-1.321.07-1.979.133l-.048,0" transform="translate(-207.991 -31.986)" fill="#b2b2b2"/>
      <path id="Path_145942" data-name="Path 145942" d="M509.842,166.132a1.005,1.005,0,1,1-1.005-1.005,1,1,0,0,1,1.005,1.005" transform="translate(-252.59 -82.132)" fill="#b2b2b2"/>
      <path id="Subtraction_8" data-name="Subtraction 8" d="M-1245.445,1225.872h0a22.594,22.594,0,0,1-5.752-7.782,7.469,7.469,0,0,1-.631-3.048,6.391,6.391,0,0,1,6.384-6.384,6.39,6.39,0,0,1,6.383,6.384,7.485,7.485,0,0,1-.631,3.048,22.592,22.592,0,0,1-5.751,7.782Zm0-14.353a3.168,3.168,0,0,0-3.164,3.164,3.168,3.168,0,0,0,3.164,3.164,3.168,3.168,0,0,0,3.164-3.164A3.168,3.168,0,0,0-1245.445,1211.519Z" transform="translate(1501.693 -1144.386)" fill="#b2b2b2" stroke="rgba(0,0,0,0)" stroke-width="1"/>
      <path id="Path_145945" data-name="Path 145945" d="M425.693,222.605l7.688-1.7.208,2.906-6.212.444a1.649,1.649,0,0,1-1.661-1.064l-.137-.383a.15.15,0,0,1,.115-.2" transform="translate(-211.673 -109.875)" fill="#b2b2b2"/>
      <path id="Path_145946" data-name="Path 145946" d="M449.929,210.861l-6.455,4.51,2,2.119,4.53-4.275a1.649,1.649,0,0,0,.34-1.943l-.189-.36a.15.15,0,0,0-.225-.051" transform="translate(-220.579 -104.864)" fill="#b2b2b2"/>
      <path id="Path_145947" data-name="Path 145947" d="M438.977,201.843l-3.061,2.014.836,1.9,2.217-2.614a.986.986,0,0,0,.227-1.075l-.094-.2a.084.084,0,0,0-.125-.033" transform="translate(-216.82 -100.387)" fill="#b2b2b2"/>
      <path id="Path_145948" data-name="Path 145948" d="M428.779,206.757l3.554-.892.836,1.9-3.425-.136a.987.987,0,0,1-.945-.56l-.08-.2a.083.083,0,0,1,.06-.114" transform="translate(-213.237 -102.395)" fill="#b2b2b2"/>
      <path id="Path_145949" data-name="Path 145949" d="M441.259,221.115a1.461,1.461,0,0,0,.8.724.986.986,0,0,0,.748-.01,1.026,1.026,0,0,0,.545-.653,1.471,1.471,0,0,0-.03-.977l-3.12-8.589-2.507-4.757a23.05,23.05,0,0,0-3.31-4.731h0a.225.225,0,0,0-.391.171,23.047,23.047,0,0,0,1.244,5.64L437.041,213Z" transform="translate(-215.861 -100.497)" fill="#b2b2b2"/>
      <path id="Subtraction_7" data-name="Subtraction 7" d="M-1245.492,1225.747h0a22.424,22.424,0,0,1-5.71-7.725,7.416,7.416,0,0,1-.626-3.027,6.344,6.344,0,0,1,6.337-6.337,6.344,6.344,0,0,1,6.337,6.337,7.429,7.429,0,0,1-.626,3.027,22.424,22.424,0,0,1-5.71,7.725Zm0-14.25a3.145,3.145,0,0,0-3.141,3.142,3.145,3.145,0,0,0,3.141,3.142,3.146,3.146,0,0,0,3.142-3.142A3.146,3.146,0,0,0-1245.492,1211.5Z" transform="translate(1312.819 -1070.26)" fill="#b2b2b2" stroke="rgba(0,0,0,0)" stroke-width="1"/>
      <path id="Path_145952" data-name="Path 145952" d="M316.53,353.166l7.757-1.354.076,2.913-6.226.163a1.65,1.65,0,0,1-1.611-1.137l-.119-.389a.15.15,0,0,1,.124-.2" transform="translate(-157.373 -174.987)" fill="#b2b2b2"/>
      <path id="Path_145953" data-name="Path 145953" d="M341.152,342.471l-6.652,4.214,1.9,2.207,4.718-4.067a1.65,1.65,0,0,0,.428-1.926l-.173-.368a.15.15,0,0,0-.223-.061" transform="translate(-166.376 -170.328)" fill="#b2b2b2"/>
      <path id="Path_145954" data-name="Path 145954" d="M330.73,332.815l-3.149,1.874.75,1.94,2.333-2.511a.988.988,0,0,0,.275-1.064l-.085-.2a.084.084,0,0,0-.123-.039" transform="translate(-162.935 -165.531)" fill="#b2b2b2"/>
      <path id="Path_145955" data-name="Path 145955" d="M320.367,337.287l3.591-.731.749,1.94-3.415-.29a.988.988,0,0,1-.919-.6l-.071-.206a.084.084,0,0,1,.065-.111" transform="translate(-159.312 -167.399)" fill="#b2b2b2"/>
      <path id="Path_145956" data-name="Path 145956" d="M332.22,352.04a1.461,1.461,0,0,0,.763.759.988.988,0,0,0,.747.025,1.027,1.027,0,0,0,.574-.628,1.474,1.474,0,0,0,.014-.977l-2.729-8.72-2.289-4.866a23.051,23.051,0,0,0-3.094-4.875h0a.225.225,0,0,0-.4.154,23.038,23.038,0,0,0,.989,5.691l1.576,5.14Z" transform="translate(-162.052 -165.469)" fill="#b2b2b2"/>
      <path id="Path_145957" data-name="Path 145957" d="M231.837,307.073a.5.5,0,0,1-.459-.3c-.268-.6-.556-1.2-.857-1.786a.5.5,0,0,1,.894-.46c.31.6.607,1.22.882,1.837a.5.5,0,0,1-.254.663.493.493,0,0,1-.2.044m-82.5-.848q-.561,0-1.123-.033a.5.5,0,1,1,.058-1,18.7,18.7,0,0,0,1.957.009.5.5,0,1,1,.048,1q-.468.023-.939.023m3.9-.4a.5.5,0,0,1-.1-1c.635-.124,1.279-.277,1.915-.455a.5.5,0,0,1,.272.968c-.662.186-1.334.345-2,.474a.487.487,0,0,1-.1.01m-7.982-.047a.514.514,0,0,1-.11-.012,18.4,18.4,0,0,1-1.989-.557.5.5,0,1,1,.325-.951,17.593,17.593,0,0,0,1.881.526.5.5,0,0,1-.108.994m12.793-1.386a.5.5,0,0,1-.185-.97c.6-.237,1.209-.5,1.817-.785a.5.5,0,0,1,.425.911c-.626.293-1.257.564-1.872.809a.5.5,0,0,1-.185.035m-17.479-.384a.5.5,0,0,1-.246-.065,15.033,15.033,0,0,1-1.736-1.143.5.5,0,1,1,.611-.8,14.018,14.018,0,0,0,1.619,1.066.5.5,0,0,1-.248.94m88.9-1.371a.5.5,0,0,1-.427-.236c-.352-.563-.721-1.118-1.1-1.653a.5.5,0,1,1,.822-.578c.385.548.765,1.119,1.127,1.7a.5.5,0,0,1-.426.77m-66.9-.42a.5.5,0,0,1-.245-.941c.557-.311,1.135-.649,1.718-1a.5.5,0,1,1,.523.858c-.594.362-1.183.707-1.752,1.024a.5.5,0,0,1-.244.064m4.272-2.647a.5.5,0,0,1-.281-.919q.556-.375,1.1-.755l.543-.38a.5.5,0,0,1,.579.822l-.549.385q-.553.384-1.114.762a.5.5,0,0,1-.28.086m59.679-1a.5.5,0,0,1-.387-.18c-.424-.509-.865-1.01-1.31-1.489a.5.5,0,1,1,.737-.684c.457.493.91,1.007,1.344,1.529a.5.5,0,0,1-.385.824m-55.572-1.895a.5.5,0,0,1-.3-.91l1.628-1.18a.5.5,0,1,1,.589.815l-1.628,1.179a.5.5,0,0,1-.294.1m52.1-1.739a.5.5,0,0,1-.339-.132c-.487-.445-.991-.883-1.5-1.3a.5.5,0,1,1,.638-.777c.522.428,1.039.878,1.539,1.335a.5.5,0,0,1-.34.873m-48.021-1.191a.5.5,0,0,1-.288-.915q.829-.579,1.668-1.141a.5.5,0,1,1,.558.836q-.831.554-1.651,1.128a.5.5,0,0,1-.287.091m44.1-1.944a.5.5,0,0,1-.285-.089c-.542-.375-1.1-.739-1.66-1.083a.5.5,0,1,1,.525-.857c.576.353,1.15.727,1.707,1.113a.5.5,0,0,1-.287.916m-39.892-.811a.5.5,0,0,1-.26-.933c.595-.358,1.187-.7,1.76-1.013a.5.5,0,0,1,.483.882c-.561.308-1.141.641-1.724.992a.5.5,0,0,1-.259.072m35.574-1.753a.5.5,0,0,1-.225-.054c-.59-.3-1.194-.578-1.8-.837a.5.5,0,1,1,.4-.923c.619.267,1.241.557,1.848.862a.5.5,0,0,1-.226.952m-31.136-.6a.5.5,0,0,1-.207-.961c.614-.277,1.247-.541,1.882-.784a.5.5,0,0,1,.36.938c-.618.237-1.233.493-1.829.761a.5.5,0,0,1-.206.045m26.5-1.324a.5.5,0,0,1-.158-.026c-.622-.207-1.261-.4-1.9-.571a.5.5,0,1,1,.263-.971c.655.177,1.312.375,1.952.588a.5.5,0,0,1-.158.98m-21.783-.407a.5.5,0,0,1-.139-.986c.647-.186,1.311-.358,1.973-.511a.5.5,0,0,1,.225.98c-.644.148-1.29.315-1.919.5a.515.515,0,0,1-.14.02m16.918-.838a.508.508,0,0,1-.09-.008c-.649-.119-1.309-.221-1.96-.3a.5.5,0,0,1,.127-1c.669.084,1.346.19,2.013.311a.5.5,0,0,1-.09,1m-12.009-.219a.5.5,0,0,1-.071-1c.67-.1,1.351-.176,2.024-.237a.5.5,0,1,1,.089,1c-.655.058-1.317.136-1.97.231a.588.588,0,0,1-.072.005m7.019-.346H200.3c-.548-.025-1.105-.037-1.657-.037l-.326,0h0a.5.5,0,0,1,0-1.005h.335c.567,0,1.14.013,1.7.038a.5.5,0,0,1-.022,1" transform="translate(-68.836 -141.491)" fill="#b2b2b2"/>
      <path id="Path_145958" data-name="Path 145958" d="M133.964,313.363a1.005,1.005,0,1,1-1.005-1.005,1,1,0,0,1,1.005,1.005" transform="translate(-65.632 -155.363)" fill="#b2b2b2"/>
    </g>
  </g>
</svg>
