<svg xmlns="http://www.w3.org/2000/svg" width="23.998" height="23.998" viewBox="0 0 23.998 23.998">
  <g id="google" transform="translate(-1 -1)">
    <path id="Path_49" data-name="Path 49" d="M23.519,12.454A13.787,13.787,0,0,0,23.3,10H12v4.647h6.458a5.533,5.533,0,0,1-2.411,3.611v3.022h3.894a11.723,11.723,0,0,0,3.578-8.825Z" transform="translate(0.999 0.817)" fill="#4285f4"/>
    <path id="Path_50" data-name="Path 50" d="M12.892,23.808a11.452,11.452,0,0,0,7.941-2.9l-3.894-3.022A7.214,7.214,0,0,1,6.172,14.1H2.18v3.1A11.988,11.988,0,0,0,12.892,23.808Z" transform="translate(0.107 1.19)" fill="#34a853"/>
    <path id="Path_51" data-name="Path 51" d="M6.28,14.728a7,7,0,0,1,0-4.56V7.07H2.287a11.878,11.878,0,0,0,0,10.755L5.4,15.4l.884-.676Z" transform="translate(0 0.551)" fill="#fbbc05"/>
    <path id="Path_52" data-name="Path 52" d="M12.892,5.778a6.547,6.547,0,0,1,4.592,1.789L20.92,4.131A11.511,11.511,0,0,0,12.892,1,11.978,11.978,0,0,0,2.18,7.621l3.992,3.1a7.163,7.163,0,0,1,6.719-4.941Z" transform="translate(0.107 0)" fill="#ea4335"/>
    <path id="Path_53" data-name="Path 53" d="M1,1H25V25H1Z" transform="translate(0 0)" fill="none"/>
  </g>
</svg>
