<svg width="56" height="56" viewBox="0 0 56 56" fill="none" xmlns="http://www.w3.org/2000/svg">
<path d="M0 0H56V56H0V0Z" fill="white"/>
<path d="M27.0346 14.6224L27.948 49.875L28.863 14.6227L27.9496 15.3434L27.0346 14.6224Z" fill="#8EC24D"/>
<path d="M36.2972 10.5287C36.056 10.5283 35.817 10.5754 35.5939 10.6675C35.3709 10.7595 35.1682 10.8946 34.9974 11.0651C34.8266 11.2355 34.6912 11.4379 34.5987 11.6608C34.5062 11.8837 34.4586 12.1226 34.4586 12.3638V43.9773L36.2972 10.5287Z" fill="#8EC24D"/>
<path d="M19.6019 10.5287L21.4389 43.9716V12.3638C21.439 12.1227 21.3915 11.8839 21.2991 11.6611C21.2068 11.4383 21.0715 11.2359 20.9008 11.0654C20.7302 10.895 20.5277 10.7599 20.3048 10.6678C20.0819 10.5757 19.843 10.5284 19.6019 10.5287Z" fill="#8EC24D"/>
<path d="M23.1066 6.12532L24.9431 46.0955V9.93725L27.9495 12.3086L30.956 9.93693V46.0936L32.7928 6.125L27.9492 9.944L23.1066 6.12532Z" fill="#8EC24D"/>
<path d="M16.0781 12.7391L17.9133 41.6478V14.5749C17.9133 14.3338 17.8659 14.0951 17.7737 13.8724C17.6816 13.6497 17.5464 13.4473 17.376 13.2768C17.2056 13.1063 17.0032 12.9711 16.7805 12.8788C16.5579 12.7866 16.3192 12.7391 16.0781 12.7391Z" fill="#8EC24D"/>
<path d="M39.821 12.7391C39.5799 12.7389 39.3411 12.7862 39.1182 12.8783C38.8954 12.9704 38.6929 13.1056 38.5223 13.276C38.3517 13.4464 38.2163 13.6488 38.124 13.8715C38.0316 14.0943 37.984 14.3331 37.984 14.5742V41.6539L39.821 12.7391Z" fill="#8EC24D"/>
</svg>
