<svg width="16" height="16" viewBox="0 0 16 16" fill="none" xmlns="http://www.w3.org/2000/svg">
<g clip-path="url(#clip0_190_1194)">
<path d="M5.35152 1.69629C4.23904 1.69629 3.32656 2.60877 3.32656 3.72141C3.32656 4.24621 3.53488 4.72269 3.8664 5.08413L2.20512 8.43789C2.14496 8.43245 2.08672 8.41965 2.02512 8.41965C0.91248 8.41965 0 9.33213 0 10.4448C0 11.5574 0.91248 12.4699 2.02512 12.4699C2.72208 12.4699 3.33728 12.1086 3.70192 11.5675L12.0254 12.7894C12.2552 13.655 13.0402 14.3033 13.9749 14.3033C15.0875 14.3033 16 13.3909 16 12.2782C16 11.2003 15.1416 10.3156 14.0766 10.2609L12.9864 6.86013C13.453 6.48813 13.7597 5.92221 13.7597 5.28365C13.7597 4.17101 12.8472 3.25725 11.7346 3.25725C11.0298 3.25725 10.4069 3.62477 10.0434 4.17645L7.34928 3.43981C7.20976 2.45997 6.368 1.69629 5.35152 1.69629ZM5.35152 2.72253C5.90992 2.72253 6.35168 3.16317 6.35168 3.72141C6.35266 3.85301 6.32746 3.9835 6.27756 4.10527C6.22765 4.22705 6.15403 4.33769 6.06098 4.43076C5.96793 4.52382 5.8573 4.59746 5.73553 4.64738C5.61376 4.69731 5.48328 4.72253 5.35168 4.72157C4.79328 4.72157 4.3528 4.27965 4.3528 3.72141C4.3528 3.16317 4.79344 2.72253 5.35152 2.72253ZM11.7346 4.28349C12.293 4.28349 12.7334 4.72541 12.7334 5.28349C12.7334 5.84189 12.2928 6.28237 11.7346 6.28237C11.1765 6.28237 10.7346 5.84173 10.7346 5.28365C10.7336 5.15205 10.7588 5.02156 10.8087 4.89979C10.8586 4.77801 10.9322 4.66737 11.0253 4.5743C11.1183 4.48124 11.2289 4.4076 11.3507 4.35767C11.4725 4.30775 11.603 4.28253 11.7346 4.28349ZM7.0848 4.75149L9.728 5.47533C9.82672 6.49565 10.6842 7.30397 11.7283 7.30733L12.7949 10.6417C12.5202 10.8412 12.303 11.1097 12.1547 11.4176V11.4332L12.1507 11.471L11.856 11.428L12.1038 9.73805L11.4491 9.64285L11.2014 11.3315L10.2026 11.1854L10.4504 9.49549L9.79568 9.39901L9.548 11.0889L8.54784 10.9417L8.892 8.59453L8.23872 8.49789L7.89312 10.8451L6.89312 10.699L7.1408 9.00909L6.48624 8.91389L6.2384 10.6025L5.23968 10.4553L5.48736 8.76653L4.8328 8.67005L4.58496 10.36L4.03472 10.2792L4.04112 10.2492L4.02944 10.2478C3.98016 9.75709 3.76208 9.31389 3.42304 8.98829L5.04272 5.71645C5.14416 5.73245 5.24608 5.74781 5.35168 5.74781C6.08768 5.74781 6.72976 5.34429 7.0848 4.75149ZM2.02512 9.44461C2.15672 9.44365 2.2872 9.46887 2.40897 9.51879C2.53074 9.56872 2.64137 9.64236 2.73442 9.73542C2.82747 9.82849 2.90109 9.93913 2.951 10.0609C3.0009 10.1827 3.0261 10.3132 3.02512 10.4448C3.0261 10.5764 3.0009 10.7069 2.951 10.8286C2.90109 10.9504 2.82747 11.061 2.73442 11.1541C2.64137 11.2472 2.53074 11.3208 2.40897 11.3707C2.2872 11.4207 2.15672 11.4459 2.02512 11.4449C1.89352 11.4459 1.76303 11.4207 1.64126 11.3708C1.51948 11.3209 1.40884 11.2473 1.31577 11.1542C1.22271 11.0612 1.14907 10.9505 1.09914 10.8288C1.04922 10.707 1.024 10.5765 1.02496 10.4449C1.02396 10.3133 1.04914 10.1828 1.09904 10.061C1.14893 9.93922 1.22255 9.82856 1.3156 9.73548C1.40866 9.6424 1.51929 9.56874 1.64107 9.51881C1.76285 9.46887 1.8935 9.44365 2.02512 9.44461ZM13.9749 11.2782C14.1065 11.2772 14.237 11.3024 14.3588 11.3523C14.4806 11.4023 14.5912 11.4759 14.6843 11.569C14.7774 11.662 14.851 11.7727 14.9009 11.8945C14.9508 12.0163 14.976 12.1468 14.975 12.2784C14.975 12.8366 14.5331 13.276 13.975 13.276C13.4166 13.276 12.9747 12.8366 12.9747 12.2784C12.9737 12.1468 12.9989 12.0163 13.0489 11.8945C13.0988 11.7727 13.1724 11.662 13.2655 11.569C13.3585 11.4759 13.4692 11.4023 13.591 11.3523C13.7128 11.3024 13.8433 11.2772 13.9749 11.2782Z" fill="black"/>
</g>
<defs>
<clipPath id="clip0_190_1194">
<rect width="16" height="16" fill="white" transform="translate(0 -0.000244141)"/>
</clipPath>
</defs>
</svg>
