<svg width="40" height="40" viewBox="0 0 40 40" fill="none" xmlns="http://www.w3.org/2000/svg">
<rect width="40" height="40" rx="8" fill="#97BE5A" fill-opacity="0.1"/>
<path fill-rule="evenodd" clip-rule="evenodd" d="M9.25 20C9.25 14.07 14.07 9.25 20 9.25C25.93 9.25 30.75 14.07 30.75 20C30.75 25.93 25.93 30.75 20 30.75C14.07 30.75 9.25 25.93 9.25 20ZM10.75 20C10.75 25.1 14.9 29.25 20 29.25C25.1 29.25 29.25 25.1 29.25 20C29.25 14.9 25.1 10.75 20 10.75C14.9 10.75 10.75 14.9 10.75 20Z" fill="black"/>
<path d="M17.5 20.75C17.09 20.75 16.75 20.41 16.75 20C16.75 19.59 17.09 19.25 17.5 19.25H23.5C23.91 19.25 24.25 19.59 24.25 20C24.25 20.41 23.91 20.75 23.5 20.75H17.5Z" fill="black"/>
<path d="M18.9695 23.5299L15.9695 20.5299C15.6795 20.2399 15.6795 19.7599 15.9695 19.4699L18.9695 16.4699C19.2595 16.1799 19.7395 16.1799 20.0295 16.4699C20.3195 16.7599 20.3195 17.2399 20.0295 17.5299L17.5595 19.9999L20.0295 22.4699C20.3195 22.7599 20.3195 23.2399 20.0295 23.5299C19.8795 23.6799 19.6895 23.7499 19.4995 23.7499C19.3095 23.7499 19.1195 23.6799 18.9695 23.5299Z" fill="black"/>
</svg>
