<svg width="16" height="16" viewBox="0 0 16 16" fill="none" xmlns="http://www.w3.org/2000/svg">
<g clip-path="url(#clip0_190_1403)">
<path d="M14.25 6.99977H14V2.04977C14 1.63868 13.8367 1.24443 13.546 0.953751C13.2553 0.663069 12.8611 0.499766 12.45 0.499766H11.2C11.0422 0.499105 10.8859 0.529692 10.74 0.589764C10.5941 0.649835 10.4615 0.738201 10.35 0.849763C10.2384 0.961325 10.1501 1.09388 10.09 1.23976C10.0299 1.38565 9.99932 1.54199 9.99998 1.69977V2.06977C9.57175 2.18033 9.19224 2.42973 8.92083 2.77895C8.64942 3.12816 8.50142 3.55749 8.49998 3.99977V4.49977C8.49998 4.63237 8.55266 4.75955 8.64643 4.85332C8.7402 4.94709 8.86738 4.99977 8.99998 4.99977H12C12.1326 4.99977 12.2598 4.94709 12.3535 4.85332C12.4473 4.75955 12.5 4.63237 12.5 4.49977V3.99977C12.4985 3.55749 12.3505 3.12816 12.0791 2.77895C11.8077 2.42973 11.4282 2.18033 11 2.06977V1.69977C11 1.64672 11.0211 1.59585 11.0586 1.55834C11.0961 1.52084 11.1469 1.49977 11.2 1.49977H12.45C12.5954 1.50107 12.7346 1.55944 12.8375 1.6623C12.9403 1.76516 12.9987 1.9043 13 2.04977V6.99977H1.74998C1.48739 6.99799 1.23097 7.0793 1.01737 7.23205C0.80377 7.3848 0.643941 7.60118 0.560735 7.85025C0.477528 8.09931 0.475204 8.36831 0.554097 8.61877C0.632989 8.86924 0.789056 9.08835 0.999984 9.24477V10.7448C1.00218 11.4227 1.21375 12.0834 1.60576 12.6365C1.99776 13.1896 2.55106 13.6081 3.18998 13.8348L2.58498 14.7248C2.51262 14.835 2.48673 14.9694 2.51295 15.0986C2.53917 15.2278 2.61538 15.3415 2.72498 15.4148C2.8055 15.4712 2.90168 15.5009 2.99998 15.4998C3.08234 15.4993 3.16331 15.4786 3.23571 15.4393C3.30811 15.4001 3.36969 15.3435 3.41498 15.2748L4.26998 13.9998H11.73L12.585 15.2748C12.6303 15.3435 12.6919 15.4001 12.7643 15.4393C12.8367 15.4786 12.9176 15.4993 13 15.4998C13.0983 15.5009 13.1945 15.4712 13.275 15.4148C13.3846 15.3415 13.4608 15.2278 13.487 15.0986C13.5132 14.9694 13.4873 14.835 13.415 14.7248L12.81 13.8098C13.4489 13.5831 14.0022 13.1646 14.3942 12.6115C14.7862 12.0584 14.9978 11.3977 15 10.7198V9.21977C15.2008 9.06041 15.3475 8.84294 15.4201 8.59708C15.4927 8.35121 15.4876 8.08893 15.4056 7.84605C15.3235 7.60318 15.1685 7.39156 14.9617 7.24009C14.7548 7.08862 14.5063 7.00469 14.25 6.99977ZM11.5 3.99977H9.49998C9.49998 3.73455 9.60534 3.4802 9.79288 3.29266C9.98041 3.10512 10.2348 2.99977 10.5 2.99977C10.7652 2.99977 11.0196 3.10512 11.2071 3.29266C11.3946 3.4802 11.5 3.73455 11.5 3.99977ZM1.74998 7.99977H14.25C14.3163 7.99977 14.3799 8.02611 14.4268 8.07299C14.4736 8.11987 14.5 8.18346 14.5 8.24977C14.5 8.31607 14.4736 8.37966 14.4268 8.42654C14.3799 8.47343 14.3163 8.49977 14.25 8.49977H1.74998C1.68368 8.49977 1.62009 8.47343 1.57321 8.42654C1.52632 8.37966 1.49998 8.31607 1.49998 8.24977C1.49998 8.18346 1.52632 8.11987 1.57321 8.07299C1.62009 8.02611 1.68368 7.99977 1.74998 7.99977ZM14 10.7198C13.9987 11.3241 13.758 11.9032 13.3307 12.3305C12.9034 12.7578 12.3243 12.9984 11.72 12.9998H4.27998C3.6757 12.9984 3.09654 12.7578 2.66924 12.3305C2.24194 11.9032 2.0013 11.3241 1.99998 10.7198V9.49977H14V10.7198Z" fill="black"/>
</g>
<defs>
<clipPath id="clip0_190_1403">
<rect width="16" height="16" fill="white" transform="translate(0 -0.000244141)"/>
</clipPath>
</defs>
</svg>
