<svg width="16" height="16" viewBox="0 0 16 16" fill="none" xmlns="http://www.w3.org/2000/svg">
<path fill-rule="evenodd" clip-rule="evenodd" d="M7.29565 2.16638H8.70419C9.92939 2.16637 10.8998 2.16636 11.6593 2.26848C12.4409 2.37356 13.0735 2.59497 13.5725 3.09388C14.0713 3.59279 14.2927 4.22542 14.3979 5.00704C14.4987 5.75755 14.4999 6.71405 14.4999 7.91885C14.7292 8.10798 14.9112 8.35185 15.0271 8.63145C15.1073 8.82505 15.1383 9.02472 15.1527 9.23612C15.1666 9.43918 15.1666 9.68658 15.1666 9.98285V10.0166C15.1666 10.3128 15.1666 10.5602 15.1527 10.7633C15.1383 10.9747 15.1073 11.1744 15.0271 11.368C14.841 11.8172 14.4841 12.1741 14.0349 12.3602C13.8413 12.4404 13.6416 12.4714 13.4302 12.4858C13.3494 12.4914 13.2617 12.4947 13.1666 12.4967V13.333C13.1666 13.6092 12.9427 13.833 12.6666 13.833C12.3905 13.833 12.1666 13.6092 12.1666 13.333V12.4997H3.83325V13.333C3.83325 13.6092 3.60939 13.833 3.33325 13.833C3.05711 13.833 2.83325 13.6092 2.83325 13.333V12.4967C2.73819 12.4947 2.65043 12.4914 2.56968 12.4858C2.35828 12.4714 2.15859 12.4404 1.965 12.3602C1.51578 12.1741 1.15888 11.8172 0.972806 11.368C0.892619 11.1744 0.861526 10.9747 0.847099 10.7633C0.833246 10.5602 0.833246 10.3128 0.833252 10.0166V9.98292C0.833246 9.68658 0.833246 9.43918 0.847099 9.23612C0.861526 9.02472 0.892619 8.82505 0.972806 8.63145C1.08863 8.35185 1.27065 8.10798 1.49992 7.91885C1.49993 6.71405 1.50111 5.75755 1.60201 5.00704C1.70709 4.22542 1.92851 3.59279 2.42741 3.09388C2.92633 2.59497 3.55896 2.37356 4.34057 2.26848C5.10005 2.16636 6.07046 2.16637 7.29565 2.16638ZM2.50018 7.51898C2.52321 7.51692 2.54637 7.51518 2.56968 7.51358C2.73752 7.50212 2.93561 7.50012 3.16659 7.49978V6.96505C3.16657 6.36606 3.16655 5.86658 3.21986 5.47006C3.27613 5.05154 3.39991 4.67367 3.70356 4.37002C4.00721 4.06638 4.38507 3.9426 4.8036 3.88632C5.20012 3.83302 5.6996 3.83303 6.29858 3.83305H9.70125C10.3003 3.83303 10.7997 3.83302 11.1963 3.88632C11.6148 3.9426 11.9927 4.06638 12.2963 4.37002C12.5999 4.67367 12.7237 5.05154 12.78 5.47006C12.8333 5.86658 12.8333 6.36606 12.8333 6.96505V7.49978C13.0643 7.50012 13.2623 7.50212 13.4302 7.51358C13.4535 7.51518 13.4767 7.51692 13.4997 7.51898C13.4981 6.49575 13.4868 5.73569 13.4067 5.14028C13.3166 4.46956 13.1475 4.08312 12.8653 3.80098C12.5832 3.51884 12.1967 3.34973 11.5261 3.25956C10.8409 3.16744 9.93779 3.16638 8.66658 3.16638H7.33325C6.06204 3.16638 5.15893 3.16744 4.47382 3.25956C3.80309 3.34973 3.41666 3.51884 3.13452 3.80098C2.85238 4.08312 2.68327 4.46956 2.59309 5.14028C2.51304 5.73569 2.50176 6.49575 2.50018 7.51898ZM11.8333 7.49972V6.99972C11.8333 6.35704 11.8322 5.92534 11.7889 5.60331C11.7475 5.29567 11.6761 5.164 11.5892 5.07713C11.5023 4.99025 11.3707 4.91877 11.063 4.87741C10.741 4.83411 10.3093 4.83305 9.66658 4.83305H8.49992V7.49972H11.8333ZM7.49992 7.49972V4.83305H6.33325C5.69058 4.83305 5.25887 4.83411 4.93685 4.87741C4.62921 4.91877 4.49754 4.99025 4.41067 5.07713C4.32379 5.164 4.25231 5.29567 4.21095 5.60331C4.16765 5.92534 4.16659 6.35704 4.16659 6.99972V7.49972H7.49992ZM2.63775 8.51125C2.47727 8.52218 2.39912 8.54185 2.34769 8.56318C2.14349 8.64772 1.98127 8.80998 1.89669 9.01412C1.87538 9.06558 1.85573 9.14372 1.84478 9.30418C1.83353 9.46918 1.83325 9.68225 1.83325 9.99972C1.83325 10.3172 1.83353 10.5302 1.84478 10.6952C1.85573 10.8557 1.87538 10.9338 1.89669 10.9853C1.98127 11.1894 2.14349 11.3517 2.34769 11.4363C2.39912 11.4576 2.47727 11.4772 2.63775 11.4882C2.80273 11.4994 3.01579 11.4997 3.33325 11.4997H12.6666C12.9841 11.4997 13.1971 11.4994 13.3621 11.4882C13.5226 11.4772 13.6007 11.4576 13.6522 11.4363C13.8563 11.3517 14.0186 11.1894 14.1032 10.9853C14.1245 10.9338 14.1441 10.8557 14.1551 10.6952C14.1663 10.5302 14.1666 10.3172 14.1666 9.99972C14.1666 9.68225 14.1663 9.46918 14.1551 9.30418C14.1441 9.14372 14.1245 9.06558 14.1032 9.01412C14.0186 8.80998 13.8563 8.64772 13.6522 8.56318C13.6007 8.54185 13.5226 8.52218 13.3621 8.51125C13.1971 8.49998 12.9841 8.49972 12.6666 8.49972H3.33325C3.01579 8.49972 2.80273 8.49998 2.63775 8.51125Z" fill="black"/>
</svg>
