<svg width="32" height="32" viewBox="0 0 32 32" fill="none" xmlns="http://www.w3.org/2000/svg">
<path d="M10.667 17.2666C10.1203 17.2666 9.66699 16.8133 9.66699 16.2666C9.66699 15.7199 10.1203 15.2666 10.667 15.2666H20.0003C20.547 15.2666 21.0003 15.7199 21.0003 16.2666C21.0003 16.8133 20.547 17.2666 20.0003 17.2666H10.667Z" fill="#8EC24D"/>
<path d="M10.667 22.6006C10.1203 22.6006 9.66699 22.1473 9.66699 21.6006C9.66699 21.0539 10.1203 20.6006 10.667 20.6006H16.507C17.0537 20.6006 17.507 21.0539 17.507 21.6006C17.507 22.1473 17.0537 22.6006 16.507 22.6006H10.667Z" fill="#8EC24D"/>
<path fill-rule="evenodd" clip-rule="evenodd" d="M13.3337 9.00033C12.0537 9.00033 9.66699 9.00033 9.66699 5.33366C9.66699 1.66699 12.0537 1.66699 13.3337 1.66699H18.667C19.947 1.66699 22.3337 1.66699 22.3337 5.33366C22.3337 6.61366 22.3337 9.00033 18.667 9.00033H13.3337ZM11.667 5.33366C11.667 7.00033 12.0137 7.00033 13.3337 7.00033H18.667C20.3337 7.00033 20.3337 6.65366 20.3337 5.33366C20.3337 3.66699 19.987 3.66699 18.667 3.66699H13.3337C12.0137 3.66699 11.667 3.66699 11.667 5.33366Z" fill="black"/>
<path d="M12 30.3329C4.50667 30.3329 3 26.8929 3 21.3329V13.3329C3 7.25292 5.2 4.65292 10.6133 4.37292C11.1467 4.34625 11.64 4.75958 11.6667 5.31958C11.6933 5.87958 11.2667 6.33292 10.72 6.35958C6.93333 6.57292 5 7.70625 5 13.3329V21.3329C5 26.2662 5.97333 28.3329 12 28.3329H20C26.0267 28.3329 27 26.2662 27 21.3329V13.3329C27 7.70625 25.0667 6.57292 21.28 6.35958C20.7333 6.33292 20.3067 5.85292 20.3333 5.30625C20.36 4.75958 20.84 4.33292 21.3867 4.35958C26.8 4.65292 29 7.25292 29 13.3196V21.3196C29 26.8929 27.4933 30.3329 20 30.3329H12Z" fill="black"/>
</svg>
