<svg width="32" height="32" viewBox="0 0 32 32" fill="none" xmlns="http://www.w3.org/2000/svg">
<path d="M16.7999 24.5332C16.7999 21.4399 18.8266 18.8265 21.5999 17.9199V3.03989C21.5999 1.6532 20.4799 0.533203 19.0933 0.533203H3.83994C2.45325 0.533203 1.33325 1.6532 1.33325 3.03989V28.9066C1.33325 30.3466 2.45325 31.4666 3.83994 31.4666H19.0399C19.6799 31.4666 20.2666 31.1999 20.7466 30.7733C18.4533 29.7066 16.7999 27.3066 16.7999 24.5332Z" fill="#8EC24D"/>
<path d="M2.93325 28.9599V3.03989C2.93325 1.6532 4.05325 0.533203 5.43994 0.533203H3.83994C2.45325 0.533203 1.33325 1.6532 1.33325 3.03989V28.9066C1.33325 30.3466 2.45325 31.4666 3.83994 31.4666H5.43994C4.05325 31.4666 2.93325 30.3466 2.93325 28.9599Z" fill="white"/>
<path d="M21.6001 18.6666V3.03989C21.6001 1.6532 20.4801 0.533203 19.0934 0.533203H17.4934C18.8801 0.533203 20.0001 1.6532 20.0001 3.03989V18.6666H21.6001Z" fill="#8EC24D"/>
<path d="M30.6667 24.5329C30.6667 28.3729 27.5734 31.4662 23.7334 31.4662C19.8934 31.4662 16.8 28.3729 16.8 24.5329C16.8 20.6929 19.8934 17.5996 23.7334 17.5996C27.5734 17.5996 30.6667 20.6929 30.6667 24.5329Z" fill="black"/>
<path d="M23.7333 17.5996C23.4667 17.5996 23.2 17.5996 22.9333 17.6529C26.4 18.0262 29.0667 20.9596 29.0667 24.5329C29.0667 28.1062 26.4 31.0396 22.9333 31.4129C23.2 31.4662 23.4667 31.4662 23.7333 31.4662C27.5733 31.4662 30.6667 28.3729 30.6667 24.5329C30.6667 20.6929 27.5733 17.5996 23.7333 17.5996Z" fill="#8EC24D"/>
<path d="M4 11.1997H18.9333V5.33301H4V11.1997Z" fill="white"/>
<path d="M4.53345 15.9997H7.73345V13.333H4.53345V15.9997Z" fill="white"/>
<path d="M9.86694 15.9997H13.0669V13.333H9.86694V15.9997Z" fill="white"/>
<path d="M15.2002 15.9997H18.4002V13.333H15.2002V15.9997Z" fill="white"/>
<path d="M4.53345 20.2663H7.73345V17.5996H4.53345V20.2663Z" fill="white"/>
<path d="M9.86694 20.2663H13.0669V17.5996H9.86694V20.2663Z" fill="white"/>
<path d="M4.53345 24.5328H7.73345V21.8662H4.53345V24.5328Z" fill="white"/>
<path d="M9.86694 24.5328H13.0669V21.8662H9.86694V24.5328Z" fill="white"/>
<path d="M4.53345 29.3326H7.73345V26.666H4.53345V29.3326Z" fill="white"/>
<path d="M9.86694 29.3326H13.0669V26.666H9.86694V29.3326Z" fill="white"/>
<path d="M18.4002 20.1063V17.5996H15.2002V20.2663H18.2935C18.2935 20.2129 18.3469 20.1596 18.4002 20.1063Z" fill="white"/>
<path d="M19.4668 11.7331H3.4668V4.7998H19.4668V11.7331ZM4.53342 10.6665H18.4001V5.86649H4.53342V10.6665Z" fill="black"/>
<path d="M6.66666 3.73362H3.46666C3.14666 3.73362 2.93335 3.5203 2.93335 3.2003C2.93335 2.8803 3.14666 2.66699 3.46666 2.66699H6.66666C6.98666 2.66699 7.19997 2.8803 7.19997 3.2003C7.19997 3.5203 6.98666 3.73362 6.66666 3.73362Z" fill="black"/>
<path d="M8.26669 16.5331H4V12.7998H8.26669V16.5331ZM5.06669 15.4665H7.2V13.8665H5.06669V15.4665Z" fill="black"/>
<path d="M13.5999 16.5331H9.33325V12.7998H13.5999V16.5331ZM10.3999 15.4665H12.5333V13.8665H10.3999V15.4665Z" fill="black"/>
<path d="M18.9334 16.5331H14.6667V12.7998H18.9334V16.5331ZM15.7334 15.4665H17.8667V13.8665H15.7334V15.4665Z" fill="black"/>
<path d="M8.26669 20.7997H4V17.0664H8.26669V20.7997ZM5.06669 19.733H7.2V18.133H5.06669V19.733Z" fill="black"/>
<path d="M13.5999 20.7997H9.33325V17.0664H13.5999V20.7997ZM10.3999 19.733H12.5333V18.133H10.3999V19.733Z" fill="black"/>
<path d="M8.26669 25.0663H4V21.333H8.26669V25.0663ZM5.06669 23.9996H7.2V22.3996H5.06669V23.9996Z" fill="black"/>
<path d="M13.5999 25.0663H9.33325V21.333H13.5999V25.0663ZM10.3999 23.9996H12.5333V22.3996H10.3999V23.9996Z" fill="black"/>
<path d="M8.26669 29.8671H4V26.1338H8.26669V29.8671ZM5.06669 28.8004H7.2V27.2004H5.06669V28.8004Z" fill="black"/>
<path d="M13.5999 29.8671H9.33325V26.1338H13.5999V29.8671ZM10.3999 28.8004H12.5333V27.2004H10.3999V28.8004Z" fill="black"/>
<path d="M9.86681 10.1337C9.54681 10.1337 9.3335 9.92039 9.3335 9.60039V6.9337C9.3335 6.6137 9.54681 6.40039 9.86681 6.40039C10.1868 6.40039 10.4001 6.6137 10.4001 6.9337V9.60039C10.4001 9.92039 10.1868 10.1337 9.86681 10.1337Z" fill="black"/>
<path d="M14.6669 10.1337C14.3469 10.1337 14.1335 9.92039 14.1335 9.60039V6.9337C14.1335 6.6137 14.3469 6.40039 14.6669 6.40039C14.9869 6.40039 15.2002 6.6137 15.2002 6.9337V9.60039C15.2002 9.92039 14.9869 10.1337 14.6669 10.1337Z" fill="black"/>
<path d="M16.8002 10.1337C16.4802 10.1337 16.2668 9.92039 16.2668 9.60039V6.9337C16.2668 6.6137 16.4802 6.40039 16.8002 6.40039C17.1202 6.40039 17.3335 6.6137 17.3335 6.9337V9.60039C17.3335 9.92039 17.1202 10.1337 16.8002 10.1337Z" fill="black"/>
<path d="M12.0001 10.1332C11.8401 10.1332 11.7334 10.0799 11.6268 9.97319C11.4135 9.75987 11.4135 9.43988 11.6268 9.2265L12.1601 8.69319C12.3734 8.47987 12.6934 8.47987 12.9068 8.69319C13.1202 8.9065 13.1201 9.2265 12.9068 9.43987L12.3735 9.97319C12.2668 10.0799 12.1601 10.1332 12.0001 10.1332Z" fill="black"/>
<path d="M9.33335 8.00038C9.17335 8.00038 9.06666 7.94706 8.96003 7.84038C8.74672 7.62706 8.74672 7.30706 8.96003 7.09369L9.49335 6.56038C9.70666 6.34706 10.0267 6.34706 10.24 6.56038C10.4534 6.77369 10.4533 7.09369 10.24 7.30706L9.70672 7.84038C9.60003 7.94706 9.49335 8.00038 9.33335 8.00038Z" fill="black"/>
<path d="M14.1334 8.00038C13.9734 8.00038 13.8667 7.94706 13.7601 7.84038C13.5468 7.62706 13.5468 7.30706 13.7601 7.09369L14.2934 6.56038C14.5067 6.34706 14.8267 6.34706 15.0401 6.56038C15.2535 6.77369 15.2534 7.09369 15.0401 7.30706L14.5068 7.84038C14.4001 7.94706 14.2934 8.00038 14.1334 8.00038Z" fill="black"/>
<path d="M16.2667 8.00038C16.1067 8.00038 16 7.94706 15.8934 7.84038C15.6801 7.62706 15.6801 7.30706 15.8934 7.09369L16.4267 6.56038C16.64 6.34706 16.96 6.34706 17.1734 6.56038C17.3868 6.77369 17.3867 7.09369 17.1734 7.30706L16.6401 7.84038C16.5333 7.94706 16.4267 8.00038 16.2667 8.00038Z" fill="black"/>
<path d="M23.7333 28.96C22.24 28.96 21.0667 27.7867 21.0667 26.2934C21.0667 25.9734 21.28 25.76 21.6 25.76C21.92 25.76 22.1333 25.9734 22.1333 26.2934C22.1333 27.2 22.8266 27.8934 23.7333 27.8934C24.2133 27.8934 24.64 27.68 24.96 27.3067C25.12 27.1467 25.1733 26.9334 25.12 26.72C25.12 26.5067 24.96 26.2933 24.8 26.1333L22.0266 23.9466C21.6 23.6266 21.3333 23.1466 21.28 22.6133C21.2266 22.08 21.3866 21.6 21.7066 21.2266C22.24 20.6399 22.9333 20.2666 23.7333 20.2666C25.2266 20.2666 26.4 21.4399 26.4 22.9333C26.4 23.2533 26.1867 23.4666 25.8667 23.4666C25.5467 23.4666 25.3334 23.2533 25.3334 22.9333C25.3334 22.0266 24.6401 21.3333 23.7334 21.3333C23.2534 21.3333 22.8267 21.5466 22.5067 21.92C22.3467 22.08 22.2934 22.2933 22.3467 22.5067C22.3467 22.72 22.5067 22.9334 22.6667 23.0934L25.44 25.28C25.8667 25.6 26.1333 26.08 26.1867 26.6133C26.2401 27.1467 26.08 27.6267 25.76 28C25.28 28.64 24.5333 28.96 23.7333 28.96Z" fill="white"/>
<path d="M23.7333 29.8668C23.4133 29.8668 23.2 29.6535 23.2 29.3335V19.7335C23.2 19.4135 23.4133 19.2002 23.7333 19.2002C24.0533 19.2002 24.2666 19.4135 24.2666 19.7335V29.3335C24.2666 29.6534 24.0533 29.8668 23.7333 29.8668Z" fill="white"/>
<path d="M23.7333 31.9998C19.6266 31.9998 16.2666 28.6398 16.2666 24.5331C16.2666 20.4264 19.6266 17.0664 23.7333 17.0664C27.84 17.0664 31.2 20.4265 31.2 24.5331C31.2 28.6397 27.84 31.9998 23.7333 31.9998ZM23.7333 18.1331C20.2133 18.1331 17.3333 21.0131 17.3333 24.5331C17.3333 28.0531 20.2133 30.9331 23.7333 30.9331C27.2533 30.9331 30.1333 28.0531 30.1333 24.5331C30.1333 21.0131 27.2533 18.1331 23.7333 18.1331Z" fill="black"/>
<path d="M19.0934 32H3.84005C2.18674 32 0.800049 30.6133 0.800049 28.96V3.04C0.800049 1.38669 2.18674 0 3.84005 0H19.0401C20.7467 0 22.1334 1.38669 22.1334 3.04V18.2933L21.76 18.4C19.0934 19.2533 17.3334 21.7067 17.3334 24.48C17.3334 26.9333 18.7734 29.2267 21.0134 30.24L21.7067 30.56L21.12 31.0933C20.5867 31.7333 19.84 32 19.0934 32ZM3.84005 1.06669C2.77336 1.06669 1.86674 1.97337 1.86674 3.04V28.9067C1.86674 30.0267 2.77342 30.9334 3.84005 30.9334H19.0401C19.2534 30.9334 19.4667 30.8801 19.68 30.8267C17.5467 29.44 16.2134 27.0934 16.2134 24.5334C16.2134 21.4401 18.1334 18.6667 21.0134 17.5467V3.04C21.0667 1.97331 20.16 1.06669 19.0934 1.06669H3.84005Z" fill="black"/>
<path d="M18.5601 20.7997H14.6667V17.0664H18.9334V20.3197L18.8267 20.4797L18.7734 20.533L18.5601 20.7997ZM15.7334 19.733H17.8667V18.133H15.7334V19.733Z" fill="black"/>
</svg>
