<svg width="40" height="40" viewBox="0 0 40 40" fill="none" xmlns="http://www.w3.org/2000/svg">
<rect width="40" height="40" rx="8" fill="#97BE5A" fill-opacity="0.1"/>
<path fill-rule="evenodd" clip-rule="evenodd" d="M9.25 20C9.25 14.07 14.07 9.25 20 9.25C25.93 9.25 30.75 14.07 30.75 20C30.75 25.93 25.93 30.75 20 30.75C14.07 30.75 9.25 25.93 9.25 20ZM10.75 20C10.75 25.1 14.9 29.25 20 29.25C25.1 29.25 29.25 25.1 29.25 20C29.25 14.9 25.1 10.75 20 10.75C14.9 10.75 10.75 14.9 10.75 20Z" fill="black"/>
<path d="M16.6394 23.3604C16.3494 23.0704 16.3494 22.5904 16.6394 22.3004L22.2994 16.6404C22.5894 16.3504 23.0694 16.3504 23.3594 16.6404C23.6494 16.9304 23.6494 17.4104 23.3594 17.7004L17.6994 23.3604C17.5594 23.5104 17.3594 23.5804 17.1694 23.5804C16.9794 23.5804 16.7894 23.5104 16.6394 23.3604Z" fill="black"/>
<path d="M22.2994 23.3604L16.6394 17.7004C16.3494 17.4104 16.3494 16.9304 16.6394 16.6404C16.9294 16.3504 17.4094 16.3504 17.6994 16.6404L23.3594 22.3004C23.6494 22.5904 23.6494 23.0704 23.3594 23.3604C23.2094 23.5104 23.0194 23.5804 22.8294 23.5804C22.6394 23.5804 22.4494 23.5104 22.2994 23.3604Z" fill="black"/>
</svg>
