<svg width="32" height="32" viewBox="0 0 32 32" fill="none" xmlns="http://www.w3.org/2000/svg">
<path d="M12.7081 29.8534C11.5214 29.1867 10.8147 28 10.8147 26.6534V19.5201C10.8147 18.8401 10.3747 17.84 9.96134 17.32L4.89469 12C4.05469 11.16 3.40137 9.69336 3.40137 8.61336V5.52006C3.40137 3.37339 5.02806 1.69336 7.09473 1.69336H24.8813C26.9213 1.69336 28.5747 3.34672 28.5747 5.38672V8.34672C28.5747 9.74672 27.7347 11.36 26.9347 12.1467C26.5481 12.5334 25.9081 12.5334 25.5214 12.1467C25.1347 11.76 25.1347 11.12 25.5214 10.7334C26.0147 10.24 26.5747 9.13339 26.5747 8.34672V5.38672C26.5747 4.45339 25.8147 3.69336 24.8813 3.69336H7.09473C6.14806 3.69336 5.40137 4.49339 5.40137 5.52006V8.61336C5.40137 9.1067 5.80137 10.0801 6.32137 10.6001L11.4548 16C12.1348 16.84 12.8014 18.2534 12.8014 19.5201V26.6534C12.8014 27.5334 13.4014 27.96 13.6681 28.1067C14.2414 28.4267 14.9214 28.4134 15.4548 28.0934L17.3214 26.8934C17.708 26.6667 18.0814 25.9334 18.0814 25.44C18.0814 24.8934 18.5347 24.44 19.0814 24.44C19.628 24.44 20.0814 24.8934 20.0814 25.44C20.0814 26.64 19.3347 28.0134 18.388 28.5867L16.5347 29.7867C15.9347 30.1467 15.2547 30.3334 14.5747 30.3334C13.9347 30.3334 13.2948 30.1734 12.7081 29.8534Z" fill="black"/>
<path fill-rule="evenodd" clip-rule="evenodd" d="M16.1611 17.7601C16.1611 14.8534 18.5211 12.4934 21.4278 12.4934C24.3345 12.4934 26.6945 14.8534 26.6945 17.7601C26.6945 20.6668 24.3345 23.0267 21.4278 23.0267C18.5211 23.0267 16.1611 20.6668 16.1611 17.7601ZM18.1611 17.7601C18.1611 19.5601 19.6278 21.0267 21.4278 21.0267C23.2278 21.0267 24.6945 19.5601 24.6945 17.7601C24.6945 15.9601 23.2278 14.4934 21.4278 14.4934C19.6278 14.4934 18.1611 15.9601 18.1611 17.7601Z" fill="black"/>
<path d="M25.7874 23.5335L24.4541 22.2002C24.0674 21.8135 24.0674 21.1735 24.4541 20.7868C24.8407 20.4002 25.4807 20.4002 25.8674 20.7868L27.2007 22.1202C27.5874 22.5068 27.5874 23.1468 27.2007 23.5335C27.0141 23.7202 26.7474 23.8268 26.494 23.8268C26.2407 23.8268 25.9874 23.7335 25.7874 23.5335Z" fill="black"/>
</svg>
