<svg width="32" height="32" viewBox="0 0 32 32" fill="none" xmlns="http://www.w3.org/2000/svg">
<path d="M28.1071 20.5593C28.1071 22.0527 27.3071 23.4394 26.0138 24.1994L18.0937 28.7727C16.8004 29.5194 15.2004 29.5194 13.8937 28.7727L5.97371 24.1994C4.68038 23.4527 3.88037 22.066 3.88037 20.5593V11.4394C3.88037 9.94606 4.68038 8.55934 5.97371 7.79934L13.8937 3.22602C15.187 2.47935 16.7871 2.47935 18.0937 3.22602L26.0138 7.79934C27.3071 8.55934 28.1071 9.93273 28.1071 11.4394V20.5593Z" fill="#FF0000" fill-opacity="0.4"/>
<path d="M15 17.334V10.334C15 9.78732 15.4533 9.33398 16 9.33398C16.5467 9.33398 17 9.78732 17 10.334V17.334C17 17.8807 16.5467 18.334 16 18.334C15.4533 18.334 15 17.8807 15 17.334Z" fill="#FF0000"/>
<path d="M15.4932 22.8925C15.3198 22.8258 15.1865 22.7325 15.0531 22.6125C14.9331 22.4792 14.8398 22.3325 14.7598 22.1725C14.6932 22.0125 14.6665 21.8392 14.6665 21.6658C14.6665 21.3192 14.7998 20.9725 15.0531 20.7191C15.1865 20.5991 15.3198 20.5058 15.4932 20.4392C15.9865 20.2258 16.5732 20.3458 16.9465 20.7191C17.0665 20.8525 17.1598 20.9858 17.2265 21.1592C17.2931 21.3192 17.3332 21.4925 17.3332 21.6658C17.3332 21.8392 17.2931 22.0125 17.2265 22.1725C17.1598 22.3325 17.0665 22.4792 16.9465 22.6125C16.6932 22.8659 16.3598 22.9992 15.9998 22.9992C15.8265 22.9992 15.6532 22.9591 15.4932 22.8925Z" fill="#FF0000"/>
</svg>
