<svg width="32" height="32" viewBox="0 0 32 32" fill="none" xmlns="http://www.w3.org/2000/svg">
<path d="M11.6133 23.587C11.24 23.4403 11 23.067 11 22.667V14.667C11 14.1203 11.4533 13.667 12 13.667C12.5467 13.667 13 14.1203 13 14.667V20.2537L13.96 19.2937C14.3467 18.907 14.9867 18.907 15.3733 19.2937C15.76 19.6803 15.76 20.3203 15.3733 20.707L12.7067 23.3737C12.52 23.5603 12.2533 23.667 12 23.667C11.8667 23.667 11.7467 23.6403 11.6133 23.587Z" fill="black"/>
<path d="M11.2926 23.3729L8.62594 20.7063C8.23927 20.3196 8.23927 19.6796 8.62594 19.2929C9.0126 18.9063 9.6526 18.9063 10.0393 19.2929L12.7059 21.9596C13.0926 22.3463 13.0926 22.9863 12.7059 23.3729C12.5059 23.5729 12.2526 23.6663 11.9993 23.6663C11.7459 23.6663 11.4926 23.5729 11.2926 23.3729Z" fill="black"/>
<path d="M12.0003 30.3337C4.76033 30.3337 1.66699 27.2403 1.66699 20.0003V12.0003C1.66699 4.76033 4.76033 1.66699 12.0003 1.66699H18.667C19.2137 1.66699 19.667 2.12033 19.667 2.66699C19.667 3.21366 19.2137 3.66699 18.667 3.66699H12.0003C5.85366 3.66699 3.66699 5.85366 3.66699 12.0003V20.0003C3.66699 26.147 5.85366 28.3337 12.0003 28.3337H20.0003C26.147 28.3337 28.3337 26.147 28.3337 20.0003V13.3337C28.3337 12.787 28.787 12.3337 29.3337 12.3337C29.8803 12.3337 30.3337 12.787 30.3337 13.3337V20.0003C30.3337 27.2403 27.2403 30.3337 20.0003 30.3337H12.0003Z" fill="black"/>
<path fill-rule="evenodd" clip-rule="evenodd" d="M24.0003 14.3336C19.4403 14.3336 17.667 12.5603 17.667 8.00031V2.66698C17.667 2.26698 17.907 1.89364 18.2803 1.74698C18.6537 1.58698 19.0803 1.68031 19.3737 1.96031L30.0403 12.627C30.3203 12.907 30.4137 13.347 30.2537 13.7203C30.0937 14.0936 29.7337 14.3336 29.3337 14.3336H24.0003ZM19.667 8.00031C19.667 11.4403 20.5603 12.3336 24.0003 12.3336H26.9203L19.667 5.08031V8.00031Z" fill="black"/>
</svg>
