<svg width="32" height="32" viewBox="0 0 32 32" fill="none" xmlns="http://www.w3.org/2000/svg">
<path d="M9.92448 27.6667C5.92448 27.6667 3.25781 25.6667 3.25781 21V11.6667C3.25781 7 5.92448 5 9.92448 5H23.2578C27.2578 5 29.9245 7 29.9245 11.6667V21C29.9245 25.6667 27.2578 27.6667 23.2578 27.6667H9.92448Z" fill="#CCE1B2"/>
<path d="M12.8811 16.1066L8.70775 12.7733C8.28109 12.4266 8.20109 11.8 8.54776 11.3733C8.89443 10.9466 9.5211 10.8666 9.94776 11.2133L14.1211 14.5466C15.1344 15.36 16.8544 15.36 17.8677 14.5466L22.0411 11.2133C22.4678 10.8666 23.1078 10.9333 23.4411 11.3733C23.7878 11.8 23.7211 12.44 23.2811 12.7733L19.1078 16.1066C18.2544 16.8133 17.1211 17.16 16.0011 17.16C14.8811 17.16 13.7478 16.8133 12.8811 16.1066Z" fill="#8EC24D"/>
</svg>
