<svg width="32" height="32" viewBox="0 0 32 32" fill="none" xmlns="http://www.w3.org/2000/svg">
<path d="M9.60032 12C5.33366 12 2.66699 14.6667 2.66699 18.9333V22.3867C2.66699 26.6667 5.33366 29.3333 9.60032 29.3333H22.387C26.6537 29.3333 29.3203 26.6667 29.3203 22.4V18.9333C29.3337 14.6667 26.667 12 22.4003 12H9.60032Z" fill="#97BE5A" fill-opacity="0.4"/>
<path d="M16.7061 2.95992C16.3195 2.57326 15.6795 2.57326 15.2928 2.95992L10.8261 7.42659C10.4395 7.81326 10.4395 8.45326 10.8261 8.83992C11.2128 9.22659 11.8528 9.22659 12.2395 8.83992L14.9995 6.07992V20.3333C14.9995 20.8799 15.4528 21.3333 15.9995 21.3333C16.5461 21.3333 16.9995 20.8799 16.9995 20.3333V6.07992L19.7595 8.83992C19.9595 9.03992 20.2128 9.13326 20.4661 9.13326C20.7195 9.13326 20.9728 9.03992 21.1728 8.83992C21.5728 8.45326 21.5728 7.82659 21.1728 7.42659L16.7061 2.95992Z" fill="#8EC24D"/>
</svg>
