<svg width="72" height="72" viewBox="0 0 72 72" fill="none" xmlns="http://www.w3.org/2000/svg">
<rect width="72" height="72" rx="8" fill="#97BE5A" fill-opacity="0.1"/>
<path d="M31.6543 49.6664C25.1076 49.6664 22.3076 46.8664 22.3076 40.3197V40.1464C22.3076 34.2264 24.641 31.373 29.8676 30.8797C30.401 30.8397 30.9076 31.2397 30.9609 31.7864C31.0143 32.333 30.6143 32.8264 30.0543 32.8797C25.8676 33.2664 24.3076 35.2397 24.3076 40.1597V40.333C24.3076 45.7597 26.2276 47.6797 31.6543 47.6797H40.3476C45.7743 47.6797 47.6943 45.7597 47.6943 40.333V40.1597C47.6943 35.213 46.1076 33.2397 41.8409 32.8797C41.2943 32.8264 40.8809 32.3464 40.9343 31.7997C40.9876 31.253 41.4543 30.8397 42.0143 30.893C47.3209 31.3464 49.6943 34.213 49.6943 40.173V40.3464C49.6943 46.8664 46.8943 49.6664 40.3476 49.6664H31.6543Z" fill="black"/>
<path d="M35 40.0005V24.8271C35 24.2805 35.4533 23.8271 36 23.8271C36.5467 23.8271 37 24.2805 37 24.8271V40.0005C37 40.5471 36.5467 41.0005 36 41.0005C35.4533 41.0005 35 40.5471 35 40.0005Z" fill="black"/>
<path d="M39.7595 28.5069L35.9995 24.7469L32.2395 28.5069C31.8528 28.8936 31.2128 28.8936 30.8261 28.5069C30.4395 28.1202 30.4395 27.4802 30.8261 27.0936L35.2928 22.6269C35.6795 22.2402 36.3195 22.2402 36.7061 22.6269L41.1728 27.0936C41.5595 27.4802 41.5595 28.1202 41.1728 28.5069C40.9861 28.7069 40.7195 28.8002 40.4661 28.8002C40.2128 28.8002 39.9595 28.7069 39.7595 28.5069Z" fill="black"/>
</svg>
