<svg width="24" height="24" viewBox="0 0 24 24" fill="none" xmlns="http://www.w3.org/2000/svg">
<path d="M7.08914 8.85055C7.37914 9.14055 7.37914 9.62055 7.08914 9.91055L5.05914 11.9405L7.08914 13.9705C7.37914 14.2605 7.37914 14.7405 7.08914 15.0305C6.79914 15.3205 6.31914 15.3205 6.02914 15.0305L3.46914 12.4705C3.17914 12.1805 3.17914 11.7005 3.46914 11.4105L6.02914 8.85055C6.17914 8.70055 6.36914 8.63055 6.55914 8.63055C6.74914 8.63055 6.93914 8.70055 7.08914 8.85055Z" fill="#FF0000"/>
<path d="M14.2402 11.1895C14.6502 11.1895 14.9902 11.5295 14.9902 11.9395C14.9902 12.3495 14.6502 12.6895 14.2402 12.6895L4.07023 12.6895C3.66023 12.6895 3.32023 12.3495 3.32023 11.9395C3.32023 11.5295 3.66023 11.1895 4.07023 11.1895L14.2402 11.1895Z" fill="#FF0000"/>
<path d="M20.9902 12C20.9902 17.15 17.3902 20.75 12.2402 20.75C11.8302 20.75 11.4902 20.41 11.4902 20C11.4902 19.59 11.8302 19.25 12.2402 19.25C16.5102 19.25 19.4902 16.27 19.4902 12C19.4902 7.73 16.5102 4.75 12.2402 4.75C11.8302 4.75 11.4902 4.41 11.4902 4C11.4902 3.59 11.8302 3.25 12.2402 3.25C17.3902 3.25 20.9902 6.85 20.9902 12Z" fill="#FF0000"/>
</svg>
