<svg width="245" height="84" viewBox="0 0 245 84" fill="none" xmlns="http://www.w3.org/2000/svg">
<path d="M120.432 16.3145L122.186 83.9999L123.943 16.3151L122.189 17.6987L120.432 16.3145Z" fill="#8EC24D"/>
<path d="M138.217 8.45704C137.754 8.45623 137.295 8.54676 136.866 8.72346C136.438 8.90016 136.049 9.15956 135.721 9.48681C135.393 9.81407 135.133 10.2028 134.956 10.6307C134.778 11.0586 134.687 11.5173 134.687 11.9805V72.6789L138.217 8.45704Z" fill="#8EC24D"/>
<path d="M106.161 8.45703L109.688 72.6678V11.9805C109.688 11.5175 109.597 11.0589 109.42 10.6312C109.243 10.2034 108.983 9.81479 108.655 9.48755C108.328 9.1603 107.939 8.90083 107.511 8.72401C107.083 8.54718 106.624 8.45647 106.161 8.45703Z" fill="#8EC24D"/>
<path d="M112.89 0.000621221L116.416 76.744V7.31958L122.188 11.8726L127.961 7.31897V76.7403L131.487 0L122.188 7.33254L112.89 0.000621221Z" fill="#8EC24D"/>
<path d="M99.3955 12.6992L102.919 68.2043V16.2239C102.919 15.7611 102.828 15.3028 102.651 14.8752C102.474 14.4475 102.215 14.059 101.887 13.7317C101.56 13.4043 101.172 13.1447 100.744 12.9675C100.317 12.7904 99.8583 12.6992 99.3955 12.6992Z" fill="#8EC24D"/>
<path d="M144.982 12.6992C144.519 12.6988 144.06 12.7896 143.632 12.9665C143.204 13.1434 142.816 13.4029 142.488 13.7301C142.161 14.0573 141.901 14.4459 141.723 14.8736C141.546 15.3012 141.455 15.7597 141.455 16.2227V68.216L144.982 12.6992Z" fill="#8EC24D"/>
<path d="M22.9449 28.084V44.4682H19.1883V30.8543L13.6132 44.4682H9.33168L3.77697 30.8975V44.4682H0V28.084H6.14011L11.4727 41.334L16.8048 28.084H22.9449Z" fill="black"/>
<path d="M39.1817 40.6881H30.0924L28.2543 44.4651H24.2349L32.4352 28.084H36.8186L45.059 44.4682H41.0396L39.1817 40.6881ZM31.6679 37.4565H37.626L34.6368 31.3157L31.6679 37.4565Z" fill="black"/>
<path d="M64.104 36.1414C64.9676 45.7292 53.0989 44.5769 46.3296 44.4634V28.0847C53.2142 28.0427 64.9719 26.6665 64.104 36.1414ZM60.2463 36.1414C60.7453 30.9068 53.8668 31.5317 50.1065 31.597V40.9529C54.0118 41.0306 60.7447 41.6357 60.2463 36.1414Z" fill="black"/>
<path d="M78.3827 40.6881H69.2935L67.4559 44.4652H63.4365L71.6369 28.084H76.0196L84.2607 44.4652H80.2413L78.3827 40.6881ZM70.8695 37.4565H76.8277L73.8384 31.3157L70.8695 37.4565Z" fill="black"/>
<path d="M4.84041 53.8093C5.04483 54.0923 5.15393 54.4329 5.15192 54.782C5.15384 55.1316 5.04308 55.4725 4.83608 55.7542C4.60814 56.0604 4.30135 56.299 3.94844 56.4444C3.53297 56.6187 3.08564 56.7043 2.63517 56.6955H0.722943V59.3418H0V52.8599H2.63517C3.08743 52.8516 3.53638 52.9386 3.95277 53.1153C4.30641 53.2613 4.61337 53.5013 4.84041 53.8093ZM4.17729 55.4871C4.33016 55.284 4.41209 55.0363 4.41047 54.782C4.41314 54.5255 4.32924 54.2756 4.17236 54.0726C3.99822 53.8524 3.76754 53.6835 3.50493 53.5841C3.19036 53.4625 2.85519 53.403 2.51797 53.4089H0.724807V56.1619H2.51797C2.859 56.1687 3.198 56.1079 3.51542 55.983C3.77722 55.8813 4.00614 55.7098 4.17729 55.4871Z" fill="black"/>
<path d="M9.76298 59.3418H9.04004V52.8599H11.6475C12.1005 52.8516 12.5504 52.9356 12.97 53.1067C13.325 53.2476 13.636 53.4805 13.8712 53.7815C14.0808 54.0548 14.1935 54.3901 14.1913 54.7346C14.193 55.07 14.0847 55.3968 13.8829 55.6648C13.6589 55.9604 13.3611 56.1918 13.0193 56.3359C12.615 56.5108 12.1793 56.6017 11.7387 56.603H11.6105L14.2179 59.3406H13.3401L10.7413 56.603L9.76238 56.611L9.76298 59.3418ZM12.5388 55.8992C12.8001 55.8007 13.0307 55.6347 13.2068 55.418C13.365 55.2231 13.4507 54.9794 13.4493 54.7284C13.4523 54.4769 13.3664 54.2325 13.2068 54.0381C13.0277 53.825 12.7962 53.6621 12.5351 53.5656C12.2287 53.4474 11.9025 53.389 11.574 53.3935H9.76238V56.0707H11.5728C11.9031 56.0763 12.2313 56.0181 12.5394 55.8992H12.5388Z" fill="black"/>
<path d="M25.0972 54.4239C25.4485 54.9114 25.6376 55.4969 25.6376 56.0978C25.6376 56.6986 25.4485 57.2842 25.0972 57.7716C24.7225 58.2948 24.22 58.7133 23.6378 58.9874C23.0098 59.284 22.3238 59.4377 21.6293 59.4377C20.9348 59.4377 20.2489 59.284 19.6209 58.9874C19.0384 58.7136 18.5359 58.295 18.1614 57.7716C17.8101 57.2842 17.6211 56.6986 17.6211 56.0978C17.6211 55.4969 17.8101 54.9114 18.1614 54.4239C18.5358 53.9003 19.0383 53.4815 19.6209 53.2075C20.249 52.9114 20.9349 52.7578 21.6293 52.7578C22.3238 52.7578 23.0096 52.9114 23.6378 53.2075C24.2201 53.4818 24.7225 53.9006 25.0972 54.4239ZM24.457 57.4817C24.7428 57.0767 24.8962 56.5931 24.8962 56.0975C24.8962 55.6018 24.7428 55.1182 24.457 54.7132C24.1541 54.2807 23.7444 53.9341 23.2677 53.7072C22.7571 53.4639 22.1986 53.3376 21.633 53.3376C21.0674 53.3376 20.509 53.4639 19.9984 53.7072C19.5233 53.9347 19.115 54.2813 18.8134 54.7132C18.5283 55.1185 18.3753 55.6019 18.3753 56.0975C18.3753 56.593 18.5283 57.0764 18.8134 57.4817C19.115 57.9138 19.5232 58.2606 19.9984 58.4884C20.5091 58.7313 21.0675 58.8573 21.633 58.8573C22.1986 58.8573 22.757 58.7313 23.2677 58.4884C23.7443 58.2615 24.154 57.9151 24.457 57.4829V57.4817Z" fill="black"/>
<path d="M34.5762 53.8093C34.7795 54.093 34.8884 54.4333 34.8878 54.7823C34.8871 55.1313 34.7768 55.4713 34.5725 55.7542C34.3444 56.0602 34.0377 56.2988 33.6849 56.4444C33.2692 56.6188 32.8217 56.7043 32.371 56.6955H30.4588V59.3418H29.7358V52.8599H32.371C32.8235 52.8516 33.2726 52.9386 33.6892 53.1153C34.0426 53.2614 34.3494 53.5014 34.5762 53.8093ZM33.9137 55.4871C34.0666 55.284 34.1485 55.0363 34.1469 54.782C34.1496 54.5255 34.0657 54.2756 33.9088 54.0726C33.7344 53.8524 33.5035 53.6835 33.2408 53.5841C32.9262 53.4625 32.591 53.403 32.2538 53.4089H30.4606V56.1619H32.2538C32.5948 56.1688 32.9339 56.108 33.2513 55.983C33.5133 55.8815 33.7425 55.7099 33.9137 55.4871Z" fill="black"/>
<path d="M42.9837 55.8332V56.3674H39.4972V58.7923H43.1582V59.3413H38.7749V52.8594H43.1582V53.4238H39.4972V55.8332H42.9837Z" fill="black"/>
<path d="M48.0718 59.3418H47.3501V52.8599H49.9575C50.4105 52.8517 50.8605 52.9356 51.28 53.1067C51.6349 53.2476 51.9457 53.4805 52.1806 53.7815C52.3862 54.0517 52.4988 54.3812 52.5013 54.7208C52.5039 55.0603 52.3963 55.3915 52.1948 55.6648C51.9708 55.9604 51.673 56.1918 51.3312 56.3359C50.9269 56.5108 50.4912 56.6017 50.0507 56.603H49.9223L52.5298 59.3406H51.6495L49.0507 56.603L48.0718 56.611V59.3418ZM50.8476 55.8992C51.1089 55.8007 51.3395 55.6347 51.5157 55.418C51.6739 55.2231 51.7595 54.9794 51.7581 54.7284C51.7611 54.4769 51.6752 54.2325 51.5157 54.0381C51.3366 53.825 51.1051 53.6621 50.8439 53.5656C50.5375 53.4474 50.2113 53.389 49.8829 53.3935H48.0718V56.0706H49.8835C50.2131 56.076 50.5406 56.0178 50.8482 55.8992H50.8476Z" fill="black"/>
<path d="M58.9405 59.3413H58.2175V53.4238H55.6465V52.8594H61.5121V53.4238H58.9405V59.3413Z" fill="black"/>
<path d="M65.9495 52.8594H65.2266V59.3413H65.9495V52.8594Z" fill="black"/>
<path d="M74.6601 55.8332V56.3674H71.173V58.7923H74.834V59.3413H70.4507V52.8594H74.834V53.4238H71.173V55.8332H74.6601Z" fill="black"/>
<path d="M79.778 53.675C79.6281 53.7659 79.5037 53.8932 79.4164 54.0452C79.3291 54.1973 79.2818 54.3689 79.279 54.5442C79.2749 54.6625 79.2989 54.7801 79.3491 54.8874C79.3993 54.9946 79.4742 55.0884 79.5677 55.161C79.7791 55.3231 80.0223 55.4389 80.2814 55.5009C80.5651 55.5741 80.9601 55.6541 81.4663 55.7409C81.9535 55.8149 82.4362 55.9156 82.9123 56.0425C83.2645 56.1358 83.5892 56.3122 83.8591 56.557C83.9908 56.6834 84.0938 56.8367 84.161 57.0065C84.2282 57.1763 84.2579 57.3585 84.2483 57.5409C84.2567 57.8225 84.1894 58.1013 84.0535 58.3481C83.9176 58.5949 83.7179 58.8007 83.4754 58.9442C82.8086 59.3106 82.052 59.4816 81.2924 59.4377C80.6933 59.4526 80.0966 59.3584 79.5313 59.1595C79.1075 59.008 78.7105 58.7903 78.355 58.5143L78.6634 58.0269C79.0071 58.2833 79.3882 58.4852 79.7935 58.6253C80.2805 58.7925 80.7929 58.8737 81.3078 58.8653C81.8783 58.9038 82.4479 58.7795 82.9505 58.5068C83.1156 58.4122 83.2529 58.2757 83.3484 58.1111C83.4439 57.9465 83.4943 57.7596 83.4946 57.5692C83.4995 57.4469 83.4755 57.3251 83.4246 57.2138C83.3737 57.1024 83.2973 57.0047 83.2015 56.9283C82.9885 56.7621 82.7421 56.6439 82.4792 56.5816C82.1913 56.508 81.7947 56.4281 81.2893 56.3417C80.807 56.2639 80.3292 56.1609 79.8576 56.0333C79.5121 55.9381 79.1939 55.7629 78.9286 55.5219C78.7987 55.3969 78.6971 55.2453 78.6308 55.0776C78.5645 54.9099 78.535 54.7299 78.5443 54.5497C78.5415 54.213 78.6563 53.8857 78.8688 53.6245C79.1188 53.3295 79.4451 53.1091 79.812 52.9872C80.2881 52.8243 80.7893 52.7471 81.2924 52.759C81.8396 52.75 82.3824 52.8579 82.8845 53.0755C83.2785 53.2396 83.6457 53.4619 83.9738 53.7349L83.6623 54.2154C82.9925 53.6525 82.1493 53.3373 81.2745 53.3228C80.7516 53.2872 80.2302 53.41 79.778 53.675Z" fill="black"/>
<path d="M244.378 34.6277C245.598 25.4322 234.483 27.7312 227.833 27.466V40.5143H211.198C211.815 27.4987 210.475 27.0626 196.137 27.466V31.3694C207.701 31.301 206.974 30.2054 206.792 40.5155H193.264V44.4017H211.16H244.329L244.378 34.6277ZM232.219 40.8696L232.224 31.3701C243.051 30.6816 239.268 33.7141 239.961 40.8696H232.219Z" fill="black"/>
<path d="M174.973 34.1882V40.5128C164.81 40.965 164.698 39.8559 165.042 31.368H160.634C159.322 46.5136 165.511 44.3219 179.378 44.3965V34.0211C179.128 31.2872 182.763 31.2452 185.184 31.3686V44.3959H189.595V27.4645C183.59 27.2869 174.354 26.7231 174.973 34.1882Z" fill="black"/>
<path d="M167.165 52.0015C167.251 52.0041 167.336 51.9895 167.416 51.9585C167.497 51.9275 167.57 51.8807 167.631 51.8209C167.693 51.7611 167.742 51.6895 167.775 51.6104C167.809 51.5312 167.826 51.4462 167.826 51.3603C167.826 51.2744 167.809 51.1893 167.775 51.1102C167.742 51.0311 167.693 50.9595 167.631 50.8997C167.57 50.8399 167.497 50.7931 167.416 50.762C167.336 50.731 167.251 50.7164 167.165 50.7191C167.079 50.7164 166.993 50.731 166.913 50.762C166.833 50.7931 166.76 50.8399 166.698 50.8997C166.637 50.9595 166.588 51.0311 166.554 51.1102C166.521 51.1893 166.503 51.2744 166.503 51.3603C166.503 51.4462 166.521 51.5312 166.554 51.6104C166.588 51.6895 166.637 51.7611 166.698 51.8209C166.76 51.8807 166.833 51.9275 166.913 51.9585C166.993 51.9895 167.079 52.0041 167.165 52.0015Z" fill="black"/>
<path d="M164.927 52.0015C165.012 52.0041 165.098 51.9895 165.178 51.9585C165.258 51.9275 165.331 51.8807 165.393 51.8209C165.455 51.7611 165.504 51.6895 165.537 51.6104C165.571 51.5312 165.588 51.4462 165.588 51.3603C165.588 51.2744 165.571 51.1893 165.537 51.1102C165.504 51.0311 165.455 50.9595 165.393 50.8997C165.331 50.8399 165.258 50.7931 165.178 50.762C165.098 50.731 165.012 50.7164 164.927 50.7191C164.841 50.7164 164.755 50.731 164.675 50.762C164.595 50.7931 164.522 50.8399 164.46 50.8997C164.398 50.9595 164.349 51.0311 164.316 51.1102C164.282 51.1893 164.265 51.2744 164.265 51.3603C164.265 51.4462 164.282 51.5312 164.316 51.6104C164.349 51.6895 164.398 51.7611 164.46 51.8209C164.522 51.8807 164.595 51.9275 164.675 51.9585C164.755 51.9895 164.841 52.0041 164.927 52.0015Z" fill="black"/>
<path d="M190.014 61.5473C189.928 61.5454 189.843 61.5607 189.763 61.5924C189.683 61.6241 189.611 61.6715 189.55 61.7318C189.488 61.792 189.44 61.864 189.407 61.9433C189.374 62.0226 189.358 62.1078 189.358 62.1936C189.359 62.2795 189.377 62.3644 189.411 62.4432C189.445 62.522 189.495 62.5932 189.557 62.6525C189.619 62.7118 189.692 62.7581 189.772 62.7885C189.853 62.819 189.938 62.833 190.024 62.8298C190.11 62.8317 190.195 62.8164 190.275 62.7847C190.355 62.753 190.428 62.7056 190.489 62.6453C190.55 62.5851 190.598 62.5131 190.631 62.4338C190.664 62.3545 190.681 62.2693 190.68 62.1835C190.679 62.0976 190.661 62.0127 190.627 61.9339C190.593 61.8551 190.544 61.7839 190.482 61.7246C190.42 61.6653 190.346 61.619 190.266 61.5886C190.186 61.5581 190.1 61.5441 190.014 61.5473Z" fill="black"/>
<path d="M190.689 53.6429H189.546L189.54 58.9829H168.783L168.788 53.0371H167.646V53.6429C162.21 53.232 160.302 54.4047 160.812 60.1254H190.687L190.689 53.6429ZM167.64 58.9829H161.904C161.301 54.2554 164.036 54.7008 167.64 54.7742V58.9829Z" fill="black"/>
<path d="M194.451 53.6445C194.124 55.7887 195.761 61.8419 191.97 61.6673V62.8319C196.624 62.8381 195.496 56.6838 195.597 53.6445H194.451Z" fill="black"/>
<path d="M187.775 61.5473C187.69 61.5454 187.604 61.5607 187.524 61.5924C187.445 61.6241 187.372 61.6715 187.311 61.7318C187.25 61.792 187.201 61.864 187.168 61.9433C187.136 62.0226 187.119 62.1078 187.12 62.1936C187.12 62.2795 187.138 62.3644 187.172 62.4432C187.206 62.522 187.256 62.5932 187.318 62.6525C187.38 62.7118 187.453 62.7581 187.534 62.7885C187.614 62.819 187.7 62.833 187.785 62.8298C187.871 62.8317 187.957 62.8164 188.036 62.7847C188.116 62.753 188.189 62.7056 188.25 62.6453C188.311 62.5851 188.36 62.5131 188.392 62.4338C188.425 62.3545 188.442 62.2693 188.441 62.1835C188.441 62.0976 188.423 62.0127 188.389 61.9339C188.355 61.8551 188.305 61.7839 188.243 61.7246C188.181 61.6653 188.107 61.619 188.027 61.5886C187.947 61.5581 187.861 61.5441 187.775 61.5473Z" fill="black"/>
<path d="M223.356 52.2203C223.442 52.2229 223.528 52.2083 223.608 52.1773C223.688 52.1463 223.761 52.0994 223.823 52.0396C223.884 51.9798 223.933 51.9082 223.967 51.8291C224 51.75 224.018 51.6649 224.018 51.579C224.018 51.4931 224 51.4081 223.967 51.3289C223.933 51.2498 223.884 51.1782 223.823 51.1184C223.761 51.0586 223.688 51.0118 223.608 50.9808C223.528 50.9498 223.442 50.9351 223.356 50.9378C223.27 50.9351 223.185 50.9498 223.105 50.9808C223.025 51.0118 222.951 51.0586 222.89 51.1184C222.828 51.1782 222.779 51.2498 222.746 51.3289C222.712 51.4081 222.695 51.4931 222.695 51.579C222.695 51.6649 222.712 51.75 222.746 51.8291C222.779 51.9082 222.828 51.9798 222.89 52.0396C222.951 52.0994 223.025 52.1463 223.105 52.1773C223.185 52.2083 223.27 52.2229 223.356 52.2203Z" fill="black"/>
<path d="M221.116 52.2203C221.202 52.2229 221.287 52.2083 221.368 52.1773C221.448 52.1463 221.521 52.0994 221.582 52.0396C221.644 51.9798 221.693 51.9082 221.727 51.8291C221.76 51.75 221.777 51.6649 221.777 51.579C221.777 51.4931 221.76 51.4081 221.727 51.3289C221.693 51.2498 221.644 51.1782 221.582 51.1184C221.521 51.0586 221.448 51.0118 221.368 50.9808C221.287 50.9498 221.202 50.9351 221.116 50.9378C221.03 50.9351 220.945 50.9498 220.864 50.9808C220.784 51.0118 220.711 51.0586 220.65 51.1184C220.588 51.1782 220.539 51.2498 220.505 51.3289C220.472 51.4081 220.455 51.4931 220.455 51.579C220.455 51.6649 220.472 51.75 220.505 51.8291C220.539 51.9082 220.588 51.9798 220.65 52.0396C220.711 52.0994 220.784 52.1463 220.864 52.1773C220.945 52.2083 221.03 52.2229 221.116 52.2203Z" fill="black"/>
<path d="M239.678 50.6699L239.687 58.9826H235.571L237.39 54.8318C234.024 52.9689 231.229 53.0806 227.829 54.8318L229.461 58.9826H225.372L225.366 53.6425C221.095 53.4834 216.677 53.162 217.398 58.9826H198.94L198.931 50.6699H197.788L197.802 60.1251H240.834L240.821 50.6699H239.678ZM224.227 58.9826H218.48C217.906 54.2557 220.613 54.6998 224.228 54.7738L224.227 58.9826ZM230.605 58.9826L229.21 55.4734C230.26 54.9069 231.434 54.6113 232.627 54.6134C233.819 54.6154 234.992 54.9151 236.04 55.4851L234.394 58.9826H230.605Z" fill="black"/>
<path d="M244.365 50.6699H243.222L243.236 60.1251H244.378L244.365 50.6699Z" fill="black"/>
</svg>
