<svg width="32" height="32" viewBox="0 0 32 32" fill="none" xmlns="http://www.w3.org/2000/svg">
<path d="M28.1069 20.5603C28.1069 22.0537 27.3068 23.4404 26.0135 24.2004L18.0935 28.7737C16.8002 29.5204 15.2001 29.5204 13.8935 28.7737L5.97347 24.2004C4.68014 23.4537 3.88013 22.067 3.88013 20.5603V11.4404C3.88013 9.94704 4.68014 8.56032 5.97347 7.80032L13.8935 3.22699C15.1868 2.48033 16.7868 2.48033 18.0935 3.22699L26.0135 7.80032C27.3068 8.56032 28.1069 9.9337 28.1069 11.4404V20.5603Z" fill="#97BE5A" fill-opacity="0.4"/>
<path d="M15 17.333V10.333C15 9.78634 15.4533 9.33301 16 9.33301C16.5467 9.33301 17 9.78634 17 10.333V17.333C17 17.8797 16.5467 18.333 16 18.333C15.4533 18.333 15 17.8797 15 17.333Z" fill="#8EC24D"/>
<path d="M15.4934 22.8934C15.3201 22.8268 15.1867 22.7335 15.0534 22.6135C14.9334 22.4802 14.8401 22.3335 14.7601 22.1735C14.6934 22.0135 14.6667 21.8401 14.6667 21.6668C14.6667 21.3201 14.8001 20.9734 15.0534 20.7201C15.1867 20.6001 15.3201 20.5068 15.4934 20.4402C15.9867 20.2268 16.5734 20.3468 16.9468 20.7201C17.0668 20.8534 17.1601 20.9868 17.2267 21.1601C17.2934 21.3201 17.3334 21.4935 17.3334 21.6668C17.3334 21.8401 17.2934 22.0135 17.2267 22.1735C17.1601 22.3335 17.0668 22.4802 16.9468 22.6135C16.6934 22.8668 16.3601 23.0001 16.0001 23.0001C15.8267 23.0001 15.6534 22.9601 15.4934 22.8934Z" fill="#8EC24D"/>
</svg>
