<svg width="24" height="24" viewBox="0 0 24 24" fill="none" xmlns="http://www.w3.org/2000/svg">
<path d="M19.3009 13.0695C19.3009 16.1495 17.5409 17.4695 14.9009 17.4695H6.11093C5.66093 17.4695 5.23093 17.4295 4.83093 17.3395C4.58093 17.2995 4.34094 17.2295 4.12094 17.1495C2.62094 16.5895 1.71094 15.2895 1.71094 13.0695V7.91949C1.71094 4.83949 3.47093 3.51953 6.11093 3.51953H14.9009C17.1409 3.51953 18.7509 4.46953 19.1809 6.63953C19.2509 7.03953 19.3009 7.44949 19.3009 7.91949V13.0695Z" fill="#97BE5A" fill-opacity="0.4"/>
<path d="M22.3001 16.0706C22.3001 19.1506 20.5401 20.4706 17.9001 20.4706H9.11008C8.37008 20.4706 7.70009 20.3706 7.12009 20.1506C5.93009 19.7106 5.12008 18.8006 4.83008 17.3406C5.23008 17.4306 5.66008 17.4706 6.11008 17.4706H14.9001C17.5401 17.4706 19.3001 16.1506 19.3001 13.0706V7.92059C19.3001 7.45059 19.2601 7.03062 19.1801 6.64062C21.0801 7.04063 22.3001 8.38059 22.3001 10.9206V16.0706Z" fill="#8EC24D"/>
<path fill-rule="evenodd" clip-rule="evenodd" d="M10.4994 13.1394C9.04136 13.1394 7.85938 11.9574 7.85938 10.4994C7.85938 9.04136 9.04136 7.85938 10.4994 7.85938C11.9574 7.85938 13.1394 9.04136 13.1394 10.4994C13.1394 11.9574 11.9574 13.1394 10.4994 13.1394Z" fill="#8EC24D"/>
<path d="M4.0293 9V12C4.0293 12.41 4.3693 12.75 4.7793 12.75C5.1893 12.75 5.5293 12.41 5.5293 12V9C5.5293 8.59 5.1993 8.25 4.7793 8.25C4.3693 8.25 4.0293 8.59 4.0293 9Z" fill="#8EC24D"/>
<path d="M15.4609 9V12C15.4609 12.41 15.8009 12.75 16.2109 12.75C16.6209 12.75 16.9609 12.41 16.9609 12V9C16.9609 8.59 16.6309 8.25 16.2109 8.25C15.8009 8.25 15.4609 8.59 15.4609 9Z" fill="#8EC24D"/>
</svg>
