<svg width="32" height="32" viewBox="0 0 32 32" fill="none" xmlns="http://www.w3.org/2000/svg">
<path d="M23.4934 14.3335C22.9201 14.3335 22.4667 13.8668 22.4667 13.3068C22.4667 12.8135 21.9734 11.7868 21.1467 10.8935C20.3334 10.0268 19.4401 9.52013 18.6934 9.52013C18.1201 9.52013 17.6667 9.05346 17.6667 8.49346C17.6667 7.93346 18.1334 7.4668 18.6934 7.4668C20.0267 7.4668 21.4267 8.1868 22.6534 9.48013C23.8001 10.6935 24.5334 12.2001 24.5334 13.2935C24.5334 13.8668 24.0667 14.3335 23.4934 14.3335Z" fill="#8EC24D"/>
<path d="M28.3064 14.3334C27.733 14.3334 27.2797 13.8667 27.2797 13.3067C27.2797 8.57341 23.4264 4.73341 18.7064 4.73341C18.133 4.73341 17.6797 4.26675 17.6797 3.70675C17.6797 3.14675 18.133 2.66675 18.693 2.66675C24.5597 2.66675 29.333 7.44008 29.333 13.3067C29.333 13.8667 28.8664 14.3334 28.3064 14.3334Z" fill="#8EC24D"/>
<path opacity="0.4" d="M15.7201 18.9467L11.3601 23.3067C10.8801 22.8801 10.4134 22.4401 9.96008 21.9867C8.58675 20.6001 7.34675 19.1467 6.24008 17.6267C5.14675 16.1067 4.26675 14.5867 3.62675 13.0801C2.98675 11.5601 2.66675 10.1067 2.66675 8.72008C2.66675 7.81341 2.82675 6.94675 3.14675 6.14675C3.46675 5.33341 3.97341 4.58675 4.68008 3.92008C5.53341 3.08008 6.46675 2.66675 7.45341 2.66675C7.82675 2.66675 8.20008 2.74675 8.53341 2.90675C8.88008 3.06675 9.18675 3.30675 9.42675 3.65341L12.5201 8.01341C12.7601 8.34675 12.9334 8.65341 13.0534 8.94675C13.1734 9.22675 13.2401 9.50675 13.2401 9.76008C13.2401 10.0801 13.1467 10.4001 12.9601 10.7067C12.7867 11.0134 12.5334 11.3334 12.2134 11.6534L11.2001 12.7067C11.0534 12.8534 10.9867 13.0267 10.9867 13.2401C10.9867 13.3467 11.0001 13.4401 11.0267 13.5467C11.0667 13.6534 11.1067 13.7334 11.1334 13.8134C11.3734 14.2534 11.7867 14.8267 12.3734 15.5201C12.9734 16.2134 13.6134 16.9201 14.3067 17.6267C14.7867 18.0934 15.2534 18.5467 15.7201 18.9467Z" fill="#8EC24D"/>
<path d="M29.2929 24.44C29.2929 24.8133 29.2262 25.2 29.0929 25.5733C29.0529 25.68 29.0129 25.7866 28.9595 25.8933C28.7329 26.3733 28.4395 26.8266 28.0529 27.2533C27.3995 27.9733 26.6795 28.4933 25.8662 28.8266C25.8529 28.8266 25.8395 28.84 25.8262 28.84C25.0395 29.16 24.1862 29.3333 23.2662 29.3333C21.9062 29.3333 20.4529 29.0133 18.9195 28.36C17.3862 27.7066 15.8529 26.8266 14.3329 25.72C13.8129 25.3333 13.2929 24.9466 12.7996 24.5333L17.1595 20.1733C17.5329 20.4533 17.8662 20.6666 18.1462 20.8133C18.2129 20.84 18.2929 20.88 18.3862 20.92C18.4929 20.96 18.5995 20.9733 18.7195 20.9733C18.9462 20.9733 19.1195 20.8933 19.2662 20.7466L20.2795 19.7466C20.6129 19.4133 20.9329 19.16 21.2395 19C21.5462 18.8133 21.8529 18.72 22.1862 18.72C22.4395 18.72 22.7062 18.7733 22.9995 18.8933C23.2929 19.0133 23.5995 19.1866 23.9329 19.4133L28.3462 22.5466C28.6929 22.7866 28.9329 23.0666 29.0795 23.4C29.2129 23.7333 29.2929 24.0666 29.2929 24.44Z" fill="#8EC24D"/>
</svg>
