<svg width="56" height="56" viewBox="0 0 56 56" fill="none" xmlns="http://www.w3.org/2000/svg">
<rect width="56" height="56" rx="28" fill="#97BE5A" fill-opacity="0.6"/>
<path d="M28 17.5C30.7848 17.5 33.4555 18.6062 35.4246 20.5754C37.3938 22.5445 38.5 25.2152 38.5 28C38.5 30.7848 37.3938 33.4555 35.4246 35.4246C33.4555 37.3938 30.7848 38.5 28 38.5C25.2152 38.5 22.5445 37.3938 20.5754 35.4246C18.6062 33.4555 17.5 30.7848 17.5 28C17.5 25.2152 18.6062 22.5445 20.5754 20.5754C22.5445 18.6062 25.2152 17.5 28 17.5ZM28 37C30.3869 37 32.6761 36.0518 34.364 34.364C36.0518 32.6761 37 30.3869 37 28C37 25.6131 36.0518 23.3239 34.364 21.636C32.6761 19.9482 30.3869 19 28 19C25.6131 19 23.3239 19.9482 21.636 21.636C19.9482 23.3239 19 25.6131 19 28C19 30.3869 19.9482 32.6761 21.636 34.364C23.3239 36.0518 25.6131 37 28 37ZM26.875 31.1965L31.6705 28L26.875 24.8035V31.1965ZM27.124 23.1655L32.971 27.064C33.1251 27.1667 33.2514 27.3059 33.3388 27.4692C33.4262 27.6325 33.4719 27.8148 33.4719 28C33.4719 28.1852 33.4262 28.3675 33.3388 28.5308C33.2514 28.6941 33.1251 28.8333 32.971 28.936L27.124 32.8345C26.9546 32.9474 26.7577 33.0123 26.5543 33.0221C26.3509 33.0319 26.1487 32.9864 25.9692 32.8903C25.7897 32.7942 25.6396 32.6512 25.5349 32.4766C25.4303 32.3019 25.375 32.1021 25.375 31.8985V24.1C25.375 23.8964 25.4303 23.6966 25.5349 23.5219C25.6396 23.3473 25.7897 23.2043 25.9692 23.1082C26.1487 23.0121 26.3509 22.9666 26.5543 22.9764C26.7577 22.9862 26.9546 23.0511 27.124 23.164V23.1655Z" fill="white"/>
</svg>
