<svg width="24" height="24" viewBox="0 0 24 24" fill="none" xmlns="http://www.w3.org/2000/svg">
<path opacity="0.4" d="M12 22C17.5228 22 22 17.5228 22 12C22 6.47715 17.5228 2 12 2C6.47715 2 2 6.47715 2 12C2 17.5228 6.47715 22 12 22Z" fill="#F5F5F5"/>
<path d="M16.03 11.4694L13.03 8.46945C12.74 8.17945 12.26 8.17945 11.97 8.46945C11.68 8.75945 11.68 9.23945 11.97 9.52945L13.69 11.2494H8.5C8.09 11.2494 7.75 11.5894 7.75 11.9994C7.75 12.4094 8.09 12.7494 8.5 12.7494H13.69L11.97 14.4694C11.68 14.7594 11.68 15.2394 11.97 15.5294C12.12 15.6794 12.31 15.7494 12.5 15.7494C12.69 15.7494 12.88 15.6794 13.03 15.5294L16.03 12.5294C16.32 12.2394 16.32 11.7594 16.03 11.4694Z" fill="#8EC24D"/>
</svg>
