<svg width="15" height="15" viewBox="0 0 15 15" fill="none" xmlns="http://www.w3.org/2000/svg">
<path fill-rule="evenodd" clip-rule="evenodd" d="M5.08179 6.4374C5.08179 5.0999 6.16929 4.0249 7.50054 4.0249C8.83179 4.0249 9.91929 5.10615 9.91929 6.44365C9.91929 7.78115 8.83179 8.85615 7.50054 8.85615C6.16929 8.85615 5.08179 7.7749 5.08179 6.4374ZM6.01929 6.44365C6.01929 7.2624 6.68179 7.9249 7.50054 7.9249C8.31929 7.9249 8.98179 7.2624 8.98179 6.44365C8.98179 5.6249 8.31304 4.9624 7.50054 4.9624C6.68804 4.9624 6.01929 5.6249 6.01929 6.44365Z" fill="#989898"/>
<path fill-rule="evenodd" clip-rule="evenodd" d="M4.91855 13.1812C3.0748 11.4062 1.0373 8.575 1.80606 5.20625C2.49981 2.15 5.16856 0.78125 7.4998 0.78125C7.4998 0.78125 7.49981 0.78125 7.50606 0.78125C9.83731 0.78125 12.5061 2.15 13.1998 5.2125C13.9623 8.58125 11.9248 11.4062 10.0811 13.1812C9.35605 13.875 8.42481 14.225 7.4998 14.225C6.57481 14.225 5.64355 13.875 4.91855 13.1812ZM2.7248 5.4125C2.04981 8.35625 3.8998 10.8938 5.5748 12.5C6.65605 13.5437 8.34981 13.5437 9.43106 12.5C11.0998 10.8938 12.9498 8.35625 12.2873 5.4125C11.6623 2.6875 9.31856 1.71875 7.4998 1.71875C5.68106 1.71875 3.34356 2.6875 2.7248 5.4125Z" fill="#989898"/>
</svg>
