<svg width="32" height="32" viewBox="0 0 32 32" fill="none" xmlns="http://www.w3.org/2000/svg">
<path d="M29.333 11.227C29.333 13.3337 27.9997 14.667 25.893 14.667H21.333V5.34699C21.333 3.86699 22.5463 2.66699 24.0263 2.66699C25.4797 2.68033 26.813 3.26699 27.773 4.22699C28.733 5.20033 29.333 6.53366 29.333 8.00033V11.227Z" fill="#8EC24D"/>
<path d="M2.66699 28.0003C2.66699 29.107 3.92033 29.7337 4.80033 29.067L7.08032 27.3603C7.61366 26.9603 8.36033 27.0137 8.84033 27.4937L11.0536 29.7203C11.5737 30.2403 12.427 30.2403 12.947 29.7203L15.187 27.4803C15.6537 27.0137 16.4003 26.9603 16.9203 27.3603L19.2003 29.067C20.0803 29.7203 21.3337 29.0937 21.3337 28.0003V5.33366C21.3337 3.86699 22.5337 2.66699 24.0003 2.66699H9.33366H8.00033C4.00033 2.66699 2.66699 5.05366 2.66699 8.00033V9.33366V28.0003Z" fill="#97BE5A" fill-opacity="0.4"/>
<path d="M12.9997 12.3337V9.66699C12.9997 9.12033 12.5463 8.66699 11.9997 8.66699C11.453 8.66699 10.9997 9.12033 10.9997 9.66699V12.3337H8.33301C7.78634 12.3337 7.33301 12.787 7.33301 13.3337C7.33301 13.8803 7.78634 14.3337 8.33301 14.3337H10.9997V17.0003C10.9997 17.547 11.453 18.0003 11.9997 18.0003C12.5463 18.0003 12.9997 17.547 12.9997 17.0003V14.3337H15.6663C16.213 14.3337 16.6663 13.8803 16.6663 13.3337C16.6663 12.787 16.213 12.3337 15.6663 12.3337H12.9997Z" fill="#8EC24D"/>
</svg>
