<svg width="16" height="16" viewBox="0 0 16 16" fill="none" xmlns="http://www.w3.org/2000/svg">
<path fill-rule="evenodd" clip-rule="evenodd" d="M0.833336 7.99967C0.833336 4.04634 4.04667 0.833008 8 0.833008C11.9533 0.833008 15.1667 4.04634 15.1667 7.99967C15.1667 11.953 11.9533 15.1663 8 15.1663C4.04667 15.1663 0.833336 11.953 0.833336 7.99967ZM1.83334 7.99967C1.83334 11.3997 4.6 14.1663 8 14.1663C11.4 14.1663 14.1667 11.3997 14.1667 7.99967C14.1667 4.59967 11.4 1.83301 8 1.83301C4.6 1.83301 1.83334 4.59967 1.83334 7.99967Z" fill="#FF0000"/>
<path d="M5.75959 10.2402C5.56625 10.0469 5.56625 9.7269 5.75959 9.53357L9.53292 5.76023C9.72625 5.5669 10.0463 5.5669 10.2396 5.76023C10.4329 5.95357 10.4329 6.27357 10.2396 6.4669L6.46625 10.2402C6.37292 10.3402 6.23959 10.3869 6.11292 10.3869C5.98625 10.3869 5.85959 10.3402 5.75959 10.2402Z" fill="#FF0000"/>
<path d="M9.53292 10.2402L5.75959 6.4669C5.56625 6.27357 5.56625 5.95357 5.75959 5.76023C5.95292 5.5669 6.27292 5.5669 6.46625 5.76023L10.2396 9.53357C10.4329 9.7269 10.4329 10.0469 10.2396 10.2402C10.1396 10.3402 10.0129 10.3869 9.88625 10.3869C9.75959 10.3869 9.63292 10.3402 9.53292 10.2402Z" fill="#FF0000"/>
</svg>
