<svg width="16" height="16" viewBox="0 0 16 16" fill="none" xmlns="http://www.w3.org/2000/svg">
<path fill-rule="evenodd" clip-rule="evenodd" d="M0.833332 7.99967C0.833332 4.04634 4.04667 0.833008 8 0.833008C11.9533 0.833008 15.1667 4.04634 15.1667 7.99967C15.1667 11.953 11.9533 15.1663 8 15.1663C4.04667 15.1663 0.833332 11.953 0.833332 7.99967ZM1.83333 7.99967C1.83333 11.3997 4.6 14.1663 8 14.1663C11.4 14.1663 14.1667 11.3997 14.1667 7.99967C14.1667 4.59967 11.4 1.83301 8 1.83301C4.6 1.83301 1.83333 4.59967 1.83333 7.99967Z" fill="black"/>
<path d="M7.64677 9.86027L5.29344 7.50694C5.1001 7.31361 5.1001 6.99361 5.29344 6.80027C5.48677 6.60694 5.80677 6.60694 6.0001 6.80027L8.0001 8.80027L10.0001 6.80027C10.1934 6.60694 10.5134 6.60694 10.7068 6.80027C10.9001 6.99361 10.9001 7.31361 10.7068 7.50694L8.35344 9.86027C8.25344 9.96027 8.12677 10.0069 8.0001 10.0069C7.87344 10.0069 7.74677 9.96027 7.64677 9.86027Z" fill="black"/>
</svg>
