<svg width="15" height="15" viewBox="0 0 15 15" fill="none" xmlns="http://www.w3.org/2000/svg">
<path d="M3.12548 8.18757C3.126 8.06396 3.16316 7.94328 3.23226 7.84079C3.30136 7.7383 3.3993 7.6586 3.5137 7.61177C3.62809 7.56494 3.7538 7.55309 3.87494 7.5777C3.99607 7.60232 4.10718 7.6623 4.19423 7.75007L7.05673 10.6251C7.11483 10.6837 7.18396 10.7301 7.26012 10.7619C7.33628 10.7936 7.41797 10.8099 7.50048 10.8099C7.58299 10.8099 7.66468 10.7936 7.74084 10.7619C7.817 10.7301 7.88613 10.6837 7.94423 10.6251L10.8067 7.75007C10.8648 7.69149 10.934 7.64499 11.0101 7.61326C11.0863 7.58153 11.168 7.56519 11.2505 7.56519C11.333 7.56519 11.4147 7.58153 11.4908 7.61326C11.567 7.64499 11.6361 7.69149 11.6942 7.75007C11.8106 7.86717 11.876 8.02558 11.876 8.19069C11.876 8.35581 11.8106 8.51422 11.6942 8.63132L8.82548 11.5001C8.47392 11.8512 7.99736 12.0484 7.50048 12.0484C7.0036 12.0484 6.52704 11.8512 6.17548 11.5001L3.30673 8.63132C3.2488 8.57292 3.20298 8.50366 3.17187 8.42751C3.14077 8.35136 3.125 8.26982 3.12548 8.18757Z" fill="#8EC24D"/>
<path d="M3.12548 3.81256C3.126 3.68896 3.16316 3.56828 3.23226 3.46579C3.30136 3.3633 3.3993 3.2836 3.5137 3.23677C3.62809 3.18994 3.7538 3.17809 3.87494 3.2027C3.99607 3.22732 4.10718 3.2873 4.19423 3.37506L7.50048 6.68131L10.8067 3.37507C10.8648 3.31649 10.934 3.26999 11.0101 3.23826C11.0863 3.20653 11.168 3.19019 11.2505 3.19019C11.333 3.19019 11.4147 3.20653 11.4908 3.23826C11.567 3.26999 11.6361 3.31649 11.6942 3.37507C11.8106 3.49217 11.876 3.65057 11.876 3.81569C11.876 3.98081 11.8106 4.13921 11.6942 4.25632L7.94423 8.00632C7.88613 8.0649 7.817 8.11139 7.74084 8.14312C7.66468 8.17485 7.58299 8.19119 7.50048 8.19119C7.41797 8.19119 7.33628 8.17485 7.26012 8.14312C7.18396 8.11139 7.11483 8.0649 7.05673 8.00632L3.30673 4.25631C3.2488 4.19791 3.20298 4.12865 3.17187 4.05251C3.14077 3.97636 3.125 3.89482 3.12548 3.81256Z" fill="#8EC24D"/>
</svg>
