<svg width="38" height="38" viewBox="0 0 38 38" fill="none" xmlns="http://www.w3.org/2000/svg">
<path d="M19 0.625C23.8734 0.625 28.5471 2.56093 31.9931 6.00691C35.4391 9.45289 37.375 14.1266 37.375 19C37.375 23.8734 35.4391 28.5471 31.9931 31.9931C28.5471 35.4391 23.8734 37.375 19 37.375C14.1266 37.375 9.45289 35.4391 6.00691 31.9931C2.56093 28.5471 0.625 23.8734 0.625 19C0.625 14.1266 2.56093 9.45289 6.00691 6.00691C9.45289 2.56093 14.1266 0.625 19 0.625ZM19 34.75C23.1772 34.75 27.1832 33.0906 30.1369 30.1369C33.0906 27.1832 34.75 23.1772 34.75 19C34.75 14.8228 33.0906 10.8168 30.1369 7.86307C27.1832 4.90937 23.1772 3.25 19 3.25C14.8228 3.25 10.8168 4.90937 7.86307 7.86307C4.90937 10.8168 3.25 14.8228 3.25 19C3.25 23.1772 4.90937 27.1832 7.86307 30.1369C10.8168 33.0906 14.8228 34.75 19 34.75ZM17.0312 24.5939L25.4234 19L17.0312 13.4061V24.5939ZM17.467 10.5396L27.6993 17.362C27.9689 17.5418 28.19 17.7854 28.3429 18.0711C28.4958 18.3568 28.5758 18.6759 28.5758 19C28.5758 19.3241 28.4958 19.6432 28.3429 19.9289C28.19 20.2146 27.9689 20.4582 27.6993 20.638L17.467 27.4604C17.1705 27.658 16.8259 27.7715 16.47 27.7887C16.1141 27.8059 15.7602 27.7262 15.4461 27.558C15.1319 27.3899 14.8692 27.1397 14.6861 26.834C14.503 26.5283 14.4063 26.1787 14.4062 25.8224V12.175C14.4063 11.8187 14.503 11.469 14.6861 11.1634C14.8692 10.8577 15.1319 10.6075 15.4461 10.4393C15.7602 10.2712 16.1141 10.1915 16.47 10.2087C16.8259 10.2259 17.1705 10.3394 17.467 10.537V10.5396Z" fill="white"/>
</svg>
