<svg width="32" height="32" viewBox="0 0 32 32" fill="none" xmlns="http://www.w3.org/2000/svg">
<path fill-rule="evenodd" clip-rule="evenodd" d="M26.4656 27.8797L17.9589 19.373C17.5723 18.9863 17.5723 18.3463 17.9589 17.9597L28.2656 7.65302C28.519 7.39969 28.9056 7.30635 29.2523 7.39969C29.5989 7.50635 29.8656 7.78636 29.9456 8.13302C30.1989 9.26636 30.3323 10.533 30.3323 11.9997V19.9997C30.3323 23.693 29.5589 26.1864 27.8789 27.8797C27.6923 28.0664 27.4123 28.1064 27.1723 28.173C26.9056 28.173 26.6523 28.0664 26.4656 27.8797ZM27.0923 25.6797C27.9323 24.3863 28.3323 22.5463 28.3323 19.9997V11.9997C28.3323 11.453 28.3189 10.9464 28.2789 10.4664L20.0789 18.6663L27.0923 25.6797Z" fill="#8EC24D"/>
<path fill-rule="evenodd" clip-rule="evenodd" d="M8.13367 29.947C3.72033 28.9337 1.66699 25.7737 1.66699 20.0003V12.0003C1.66699 4.76033 4.76033 1.66699 12.0003 1.66699H20.0003C25.7737 1.66699 28.9336 3.72033 29.947 8.13367C30.027 8.467 29.9203 8.827 29.6803 9.067L9.06698 29.6803C8.88031 29.867 8.62698 29.9737 8.36031 29.9737C8.28031 29.9737 8.21367 29.9603 8.13367 29.947ZM3.66699 12.0003V20.0003C3.66699 24.627 4.947 26.947 8.05367 27.867L27.8537 8.067C26.947 4.96033 24.6136 3.68032 19.987 3.68032H12.0003V3.66699C5.85366 3.66699 3.66699 5.85366 3.66699 12.0003Z" fill="#8EC24D"/>
<path fill-rule="evenodd" clip-rule="evenodd" d="M12.0005 30.3333C10.5338 30.3333 9.28051 30.2133 8.13384 29.9466C7.77384 29.8666 7.49382 29.5999 7.40048 29.2533C7.29382 28.9066 7.40049 28.5332 7.65382 28.2666L17.9605 17.9599C18.3472 17.5733 18.9872 17.5733 19.3738 17.9599L27.8805 26.4666C28.0672 26.6533 28.1738 26.9066 28.1738 27.1733C28.1738 27.4399 28.0672 27.6933 27.8805 27.8799C26.1872 29.5599 23.6938 30.3333 20.0005 30.3333H12.0005ZM12.0005 28.3333H20.0005C22.5605 28.3333 24.3872 27.9333 25.6805 27.0933L18.6672 20.0799L10.4672 28.2799C10.9472 28.3199 11.4538 28.3333 12.0005 28.3333Z" fill="#8EC24D"/>
<path fill-rule="evenodd" clip-rule="evenodd" d="M9.81194 16.8131C7.69194 14.7997 6.83864 12.5864 7.34531 10.4264C7.85197 8.21308 9.78529 6.71973 12.1586 6.71973C14.532 6.71973 16.4653 8.21308 16.972 10.4264C17.4653 12.5997 16.612 14.7997 14.492 16.8131C13.8386 17.4264 12.9986 17.7464 12.1586 17.7464C11.3186 17.7464 10.4786 17.4397 9.81194 16.8131ZM11.1986 15.3597C11.7453 15.8797 12.5853 15.8797 13.1186 15.3597C14.212 14.3197 15.4386 12.6931 15.0253 10.8664C14.6653 9.27973 13.252 8.7064 12.1586 8.7064C11.0653 8.7064 9.66529 9.27973 9.29196 10.8664C8.86529 12.6797 10.092 14.3064 11.1986 15.3597Z" fill="#8EC24D"/>
<path d="M10.8672 11.3206C10.8672 10.5873 11.4539 9.9873 12.2005 9.9873H12.2139C12.9472 9.9873 13.5472 10.5873 13.5472 11.3206C13.5472 12.054 12.9339 12.654 12.2005 12.654C11.4672 12.654 10.8672 12.054 10.8672 11.3206Z" fill="#8EC24D"/>
</svg>
