<svg width="33" height="32" viewBox="0 0 33 32" fill="none" xmlns="http://www.w3.org/2000/svg">
<g opacity="0.2">
<path d="M16.5 4C14.3815 4.0005 12.3008 4.56171 10.4694 5.62664C8.63795 6.69156 7.121 8.22225 6.07264 10.0632C5.02428 11.9042 4.48185 13.9898 4.50046 16.1083C4.51907 18.2267 5.09805 20.3025 6.17859 22.1248L4.99451 26.2693C4.94552 26.4407 4.94327 26.6222 4.98801 26.7948C5.03274 26.9675 5.12283 27.125 5.24893 27.2511C5.37504 27.3772 5.53257 27.4673 5.70521 27.512C5.87784 27.5567 6.0593 27.5545 6.23078 27.5055L10.3753 26.3213V26.3215C11.9635 27.2639 13.7478 27.827 15.5893 27.967C17.4308 28.107 19.2797 27.8202 20.9922 27.1288C22.7046 26.4373 24.2344 25.36 25.4625 23.9807C26.6905 22.6014 27.5836 20.9572 28.0722 19.1763C28.5609 17.3953 28.632 15.5256 28.2798 13.7127C27.9277 11.8998 27.162 10.1926 26.0422 8.72406C24.9224 7.25551 23.4787 6.06521 21.8237 5.24584C20.1686 4.42646 18.3468 4.00012 16.5 4ZM19.5142 23C18.1986 23.0019 16.8955 22.7441 15.6797 22.2415C14.4639 21.7389 13.3592 21.0013 12.4289 20.0711C11.4986 19.1408 10.761 18.0361 10.2584 16.8203C9.75582 15.6044 9.49807 14.3014 9.49994 12.9858C9.50292 12.0597 9.87308 11.1727 10.5292 10.5192C11.1854 9.86576 12.0739 9.49921 12.9999 9.5C13.1518 9.49999 13.301 9.54015 13.4324 9.61638C13.5638 9.69262 13.6726 9.80223 13.748 9.93411L15.2094 12.4915C15.2975 12.6458 15.343 12.8207 15.3411 12.9983C15.3392 13.1759 15.29 13.3498 15.1987 13.5022L14.025 15.4582C14.6288 16.7982 15.7017 17.8711 17.0417 18.4749L18.9977 17.3013C19.1501 17.2099 19.324 17.1607 19.5016 17.1589C19.6793 17.157 19.8542 17.2024 20.0084 17.2906L22.5658 18.7519C22.6977 18.8273 22.8073 18.9362 22.8835 19.0675C22.9598 19.1989 22.9999 19.3481 22.9999 19.5C22.9973 20.425 22.6296 21.3115 21.9769 21.9669C21.3242 22.6223 20.4391 22.9936 19.5142 23Z" fill="#8EC24D"/>
</g>
<path d="M16.5 3C14.242 3.00061 12.0231 3.58916 10.0617 4.70774C8.10028 5.82631 6.46392 7.43634 5.31369 9.37937C4.16346 11.3224 3.53899 13.5315 3.50177 15.7891C3.46454 18.0468 4.01583 20.2752 5.10138 22.2551L4.03302 25.9945C3.935 26.3374 3.93049 26.7004 4.01994 27.0456C4.10939 27.3909 4.28955 27.706 4.54176 27.9582C4.79396 28.2104 5.10902 28.3906 5.4543 28.4801C5.79957 28.5695 6.16249 28.565 6.50544 28.467L10.2449 27.3987C11.9827 28.3522 13.9155 28.8958 15.8956 28.9878C17.8757 29.0798 19.8506 28.7178 21.6693 27.9296C23.488 27.1413 25.1024 25.9475 26.389 24.4397C27.6757 22.9318 28.6005 21.1496 29.0927 19.2295C29.585 17.3094 29.6317 15.3022 29.2292 13.3612C28.8267 11.4203 27.9858 9.59713 26.7707 8.03105C25.5555 6.46498 23.9984 5.1975 22.2183 4.32551C20.4381 3.45353 18.4822 3.00014 16.5 3ZM16.5 27C14.5246 27.0014 12.5853 26.47 10.8865 25.4618C10.7694 25.3921 10.6393 25.3472 10.5041 25.3296C10.3689 25.3121 10.2316 25.3223 10.1006 25.3597L5.956 26.5439L7.14008 22.3994C7.17752 22.2684 7.18778 22.1311 7.17024 21.996C7.15269 21.8609 7.1077 21.7308 7.03803 21.6136C5.7991 19.5262 5.28532 17.0877 5.57674 14.6778C5.86816 12.268 6.94841 10.0222 8.64921 8.29025C10.35 6.55833 12.5759 5.43754 14.98 5.10248C17.3842 4.76742 19.8317 5.23689 21.9412 6.43778C24.0507 7.63866 25.7039 9.50351 26.6431 11.7418C27.5823 13.9802 27.7549 16.4663 27.1339 18.8129C26.513 21.1596 25.1333 23.2349 23.2099 24.7157C21.2865 26.1966 18.9274 26.9997 16.5 27ZM23.062 17.8837L20.5045 16.4223C20.196 16.2462 19.8461 16.1555 19.4909 16.1593C19.1357 16.1631 18.7879 16.2613 18.4832 16.4439L17.0018 17.3328C16.2397 16.8931 15.6069 16.2603 15.1673 15.4982L16.0562 14.0167C16.2387 13.712 16.3369 13.3642 16.3407 13.009C16.3445 12.6538 16.2537 12.304 16.0776 11.9955L14.6163 9.43787C14.4531 9.15324 14.2178 8.91666 13.934 8.752C13.6502 8.58734 13.328 8.50042 12.9999 8.5C11.8093 8.50045 10.6673 8.97257 9.82393 9.81304C8.98056 10.6535 8.5045 11.7939 8.49994 12.9845C8.4979 14.4303 8.78091 15.8624 9.33278 17.1988C9.88466 18.5351 10.6946 19.7496 11.7162 20.7727C12.7379 21.7958 13.9512 22.6074 15.2867 23.1612C16.6223 23.715 18.054 24 19.4998 24C19.5051 24 19.5117 24.0029 19.5156 24C20.7062 23.9954 21.8465 23.5193 22.6869 22.676C23.5274 21.8326 23.9995 20.6906 23.9999 19.5C23.9995 19.1719 23.9126 18.8497 23.7479 18.5659C23.5833 18.2821 23.3466 18.0468 23.062 17.8837ZM19.5128 22H19.4999C18.317 22 17.1456 21.7668 16.0528 21.3137C14.9601 20.8606 13.9674 20.1965 13.1315 19.3594C12.2956 18.5223 11.6329 17.5287 11.1814 16.4353C10.7298 15.3419 10.4983 14.1702 10.4999 12.9872C10.5029 12.34 10.7569 11.7193 11.2083 11.2556C11.6598 10.792 12.2735 10.5215 12.9204 10.5012L14.3411 12.9877L13.1675 14.9437C13.0845 15.082 13.0362 15.2384 13.0267 15.3994C13.0172 15.5604 13.0468 15.7213 13.113 15.8684C13.8156 17.4324 15.0676 18.6843 16.6316 19.387C16.7787 19.4531 16.9396 19.4828 17.1006 19.4733C17.2616 19.4638 17.4179 19.4154 17.5562 19.3324L19.5123 18.1588L21.9987 19.5796C21.9784 20.2264 21.708 20.8402 21.2443 21.2916C20.7806 21.743 20.1599 21.997 19.5128 22Z" fill="#8EC24D"/>
</svg>
